<svg xmlns="http://www.w3.org/2000/svg" xmlns:xlink="http://www.w3.org/1999/xlink" width="1500" zoomAndPan="magnify" viewBox="0 0 1125 1124.99995" height="1500" preserveAspectRatio="xMidYMid meet" version="1.0"><path fill="#caddff" d="M 368.773438 55.253906 C 436.957031 19.132812 517.710938 35.546875 569.335938 46.039062 C 772.789062 87.386719 950.285156 235.535156 1026.21875 468.832031 C 1043.992188 523.425781 1124.929688 801.042969 927.820312 965.171875 C 753.578125 1110.261719 475.480469 1072.191406 296.601562 969.128906 C 148.40625 883.75 0.03125 714.296875 17.632812 564.523438 C 28.699219 470.351562 95.445312 463.628906 179.191406 290.75 C 251.679688 141.117188 285.378906 99.4375 368.773438 55.253906 " fill-opacity="1" fill-rule="nonzero"/><path fill="#014bb1" d="M 889.394531 1034.378906 L 280.007812 1034.378906 C 261.085938 1034.378906 245.6875 1015.519531 248.714844 996.757812 L 379.773438 184.484375 C 382.183594 169.546875 394.207031 157.039062 409.273438 157.039062 L 1018.664062 157.039062 C 1037.585938 157.039062 1052.820312 175.589844 1049.792969 194.351562 L 918.738281 1006.632812 C 916.328125 1021.566406 904.460938 1034.378906 889.394531 1034.378906 " fill-opacity="1" fill-rule="nonzero"/><path fill="#4285f3" d="M 865.0625 1034.347656 L 255.675781 1034.347656 C 236.753906 1034.347656 222.332031 1017.40625 225.359375 998.722656 L 356.542969 184.75 C 358.953125 169.886719 371.792969 158.953125 386.863281 158.953125 L 996.25 158.953125 C 1015.171875 158.953125 1029.589844 175.902344 1026.5625 194.578125 L 895.378906 1008.550781 C 892.972656 1023.425781 880.128906 1034.347656 865.0625 1034.347656 " fill-opacity="1" fill-rule="nonzero"/><path fill="#000000" d="M 386.863281 160.851562 C 372.652344 160.851562 360.683594 171.03125 358.410156 185.054688 L 227.226562 999.023438 C 225.871094 1007.382812 228.242188 1015.871094 233.726562 1022.320312 C 239.210938 1028.765625 247.210938 1032.457031 255.675781 1032.457031 L 865.066406 1032.457031 C 879.277344 1032.457031 891.242188 1022.277344 893.515625 1008.25 L 1024.703125 194.277344 C 1026.050781 185.921875 1023.679688 177.4375 1018.195312 170.992188 C 1012.714844 164.546875 1004.714844 160.851562 996.246094 160.851562 Z M 865.066406 1036.238281 L 255.675781 1036.238281 C 246.101562 1036.238281 237.050781 1032.054688 230.847656 1024.765625 C 224.640625 1017.472656 221.960938 1007.871094 223.496094 998.421875 L 354.675781 184.453125 C 357.25 168.582031 370.785156 157.0625 386.863281 157.0625 L 996.246094 157.0625 C 1005.824219 157.0625 1014.871094 161.25 1021.078125 168.539062 C 1027.289062 175.828125 1029.964844 185.433594 1028.429688 194.882812 L 897.25 1008.851562 C 894.671875 1024.71875 881.136719 1036.238281 865.066406 1036.238281 " fill-opacity="1" fill-rule="nonzero"/><path fill="#f5f5f5" d="M 851.066406 1008.714844 L 277.367188 1008.714844 C 259.550781 1008.714844 245.976562 992.761719 248.824219 975.171875 L 372.328125 208.878906 C 374.59375 194.878906 386.683594 184.589844 400.867188 184.589844 L 974.558594 184.589844 C 992.378906 184.589844 1005.953125 200.546875 1003.105469 218.132812 L 879.605469 984.425781 C 877.332031 998.425781 865.238281 1008.714844 851.066406 1008.714844 " fill-opacity="1" fill-rule="nonzero"/><path fill="#000000" d="M 661.195312 992.796875 L 455.75 992.796875 C 454.707031 992.796875 453.859375 991.945312 453.859375 990.90625 C 453.859375 989.859375 454.707031 989.015625 455.75 989.015625 L 661.195312 989.015625 C 662.234375 989.015625 663.085938 989.859375 663.085938 990.90625 C 663.085938 991.945312 662.234375 992.796875 661.195312 992.796875 " fill-opacity="1" fill-rule="nonzero"/><path fill="#4285f3" d="M 729.75 205.445312 L 627.75 205.445312 C 615.140625 205.445312 604.925781 195.226562 604.925781 182.621094 L 752.574219 182.621094 C 752.574219 195.226562 742.351562 205.445312 729.75 205.445312 " fill-opacity="1" fill-rule="nonzero"/><path fill="#014bb1" d="M 722.488281 453.535156 L 198.542969 453.535156 C 189.007812 453.535156 184.03125 443.277344 185.558594 433.863281 L 202.074219 340.550781 C 203.289062 333.058594 210.902344 325.722656 218.496094 325.722656 L 742.4375 325.722656 C 751.976562 325.722656 758.097656 336.089844 756.574219 345.503906 L 740.058594 438.816406 C 738.84375 446.308594 730.078125 453.535156 722.488281 453.535156 " fill-opacity="1" fill-rule="nonzero"/><path fill="#f5f5f5" d="M 707.0625 451.816406 L 162.421875 451.816406 C 152.890625 451.816406 145.621094 443.273438 147.148438 433.863281 L 163.664062 340.546875 C 164.878906 333.054688 171.351562 327.546875 178.9375 327.546875 L 723.582031 327.546875 C 733.113281 327.546875 740.382812 336.089844 738.855469 345.503906 L 722.335938 438.816406 C 721.125 446.308594 714.65625 451.816406 707.0625 451.816406 " fill-opacity="1" fill-rule="nonzero"/><path fill="#000000" d="M 178.9375 329.4375 C 172.242188 329.4375 166.605469 334.238281 165.53125 340.847656 L 149.011719 434.191406 C 148.375 438.101562 149.492188 442.105469 152.078125 445.140625 C 154.664062 448.179688 158.433594 449.925781 162.421875 449.925781 L 707.0625 449.925781 C 713.761719 449.925781 719.40625 445.125 720.472656 438.511719 L 736.992188 345.171875 C 737.628906 341.261719 736.507812 337.257812 733.925781 334.222656 C 731.339844 331.179688 727.570312 329.4375 723.582031 329.4375 Z M 707.0625 453.703125 L 162.421875 453.703125 C 157.324219 453.703125 152.503906 451.480469 149.199219 447.597656 C 145.890625 443.707031 144.464844 438.59375 145.28125 433.558594 L 161.804688 340.21875 C 163.167969 331.796875 170.378906 325.65625 178.9375 325.65625 L 723.582031 325.65625 C 728.679688 325.65625 733.5 327.882812 736.804688 331.765625 C 740.113281 335.65625 741.535156 340.769531 740.722656 345.800781 L 724.199219 439.144531 C 722.835938 447.566406 715.628906 453.703125 707.0625 453.703125 " fill-opacity="1" fill-rule="nonzero"/><path fill="#014bb1" d="M 219.59375 398.007812 C 211.40625 389.816406 211.40625 376.546875 219.59375 368.359375 C 227.78125 360.167969 241.058594 360.167969 249.246094 368.359375 C 257.433594 376.546875 257.433594 389.816406 249.246094 398.007812 C 241.058594 406.195312 227.78125 406.195312 219.59375 398.007812 Z M 254.164062 363.4375 C 243.257812 352.53125 225.582031 352.53125 214.675781 363.4375 C 203.773438 374.339844 203.773438 392.023438 214.675781 402.925781 C 225.582031 413.828125 243.257812 413.828125 254.164062 402.925781 C 265.066406 392.023438 265.066406 374.339844 254.164062 363.4375 " fill-opacity="1" fill-rule="nonzero"/><path fill="#014bb1" d="M 197.292969 423.753906 L 193.773438 420.242188 C 193.335938 419.800781 193.335938 419.089844 193.773438 418.648438 L 214.488281 397.9375 L 219.597656 403.042969 L 198.882812 423.753906 C 198.445312 424.191406 197.730469 424.191406 197.292969 423.753906 " fill-opacity="1" fill-rule="nonzero"/><path fill="#4285f3" d="M 524.171875 402.664062 L 319.597656 402.664062 C 309.265625 402.664062 300.894531 394.292969 300.894531 383.964844 C 300.894531 373.636719 309.265625 365.261719 319.597656 365.261719 L 524.171875 365.261719 C 534.503906 365.261719 542.871094 373.636719 542.871094 383.964844 C 542.871094 394.292969 534.503906 402.664062 524.171875 402.664062 " fill-opacity="1" fill-rule="nonzero"/><path fill="#4285f3" d="M 623.960938 402.382812 L 592.992188 402.382812 C 582.660156 402.382812 574.289062 394.007812 574.289062 383.679688 C 574.289062 373.351562 582.660156 364.980469 592.992188 364.980469 L 623.960938 364.980469 C 634.289062 364.980469 642.667969 373.351562 642.667969 383.679688 C 642.667969 394.007812 634.289062 402.382812 623.960938 402.382812 " fill-opacity="1" fill-rule="nonzero"/><path fill="#4285f3" d="M 611.921875 531.523438 L 407.351562 531.523438 C 397.015625 531.523438 388.644531 523.148438 388.644531 512.820312 C 388.644531 502.492188 397.015625 494.121094 407.351562 494.121094 L 611.921875 494.121094 C 622.253906 494.121094 630.621094 502.492188 630.621094 512.820312 C 630.621094 523.148438 622.253906 531.523438 611.921875 531.523438 " fill-opacity="1" fill-rule="nonzero"/><path fill="#caddff" d="M 656.605469 597.734375 L 570.324219 597.734375 C 559.996094 597.734375 551.617188 589.363281 551.617188 579.035156 C 551.617188 568.707031 559.996094 560.332031 570.324219 560.332031 L 656.605469 560.332031 C 666.933594 560.332031 675.304688 568.707031 675.304688 579.035156 C 675.304688 589.363281 666.933594 597.734375 656.605469 597.734375 " fill-opacity="1" fill-rule="nonzero"/><path fill="#caddff" d="M 804.171875 597.738281 L 717.890625 597.738281 C 707.566406 597.738281 699.1875 589.367188 699.1875 579.039062 C 699.1875 568.710938 707.566406 560.332031 717.890625 560.332031 L 804.171875 560.332031 C 814.5 560.332031 822.871094 568.710938 822.871094 579.039062 C 822.871094 589.367188 814.5 597.738281 804.171875 597.738281 " fill-opacity="1" fill-rule="nonzero"/><path fill="#caddff" d="M 834.855469 739.667969 L 611.261719 739.667969 C 600.9375 739.667969 592.5625 731.289062 592.5625 720.960938 C 592.5625 710.632812 600.9375 702.261719 611.261719 702.261719 L 834.855469 702.261719 C 845.1875 702.261719 853.566406 710.632812 853.566406 720.960938 C 853.566406 731.289062 845.1875 739.667969 834.855469 739.667969 " fill-opacity="1" fill-rule="nonzero"/><path fill="#caddff" d="M 575.269531 814.910156 L 369.992188 814.910156 C 359.660156 814.910156 351.289062 806.535156 351.289062 796.203125 C 351.289062 785.875 359.660156 777.5 369.992188 777.5 L 575.269531 777.5 C 585.601562 777.5 593.976562 785.875 593.976562 796.203125 C 593.976562 806.535156 585.601562 814.910156 575.269531 814.910156 " fill-opacity="1" fill-rule="nonzero"/><path fill="#4285f3" d="M 765.128906 814.90625 L 638.292969 814.90625 C 627.964844 814.90625 619.59375 806.53125 619.59375 796.203125 C 619.59375 785.875 627.964844 777.5 638.292969 777.5 L 765.128906 777.5 C 775.457031 777.5 783.832031 785.875 783.832031 796.203125 C 783.832031 806.53125 775.457031 814.90625 765.128906 814.90625 " fill-opacity="1" fill-rule="nonzero"/><path fill="#caddff" d="M 681.824219 887.621094 L 554.988281 887.621094 C 544.660156 887.621094 536.292969 879.246094 536.292969 868.917969 C 536.292969 858.585938 544.660156 850.21875 554.988281 850.21875 L 681.824219 850.21875 C 692.152344 850.21875 700.523438 858.585938 700.523438 868.917969 C 700.523438 879.246094 692.152344 887.621094 681.824219 887.621094 " fill-opacity="1" fill-rule="nonzero"/><path fill="#caddff" d="M 550.113281 739.667969 L 483.582031 739.667969 C 473.253906 739.667969 464.882812 731.292969 464.882812 720.964844 C 464.882812 710.632812 473.253906 702.265625 483.582031 702.265625 L 550.113281 702.265625 C 560.445312 702.265625 568.820312 710.632812 568.820312 720.964844 C 568.820312 731.292969 560.445312 739.667969 550.113281 739.667969 " fill-opacity="1" fill-rule="nonzero"/><path fill="#4285f3" d="M 743.636719 667.191406 L 647.457031 667.191406 C 637.128906 667.191406 628.761719 658.824219 628.761719 648.492188 C 628.761719 638.164062 637.128906 629.785156 647.457031 629.785156 L 743.636719 629.785156 C 753.964844 629.785156 762.339844 638.164062 762.339844 648.492188 C 762.339844 658.824219 753.964844 667.191406 743.636719 667.191406 " fill-opacity="1" fill-rule="nonzero"/><path fill="#f5f5f5" d="M 889.835938 330.238281 C 872.765625 334.90625 855.136719 324.855469 850.464844 307.773438 C 845.792969 290.6875 855.84375 273.050781 872.910156 268.375 C 889.980469 263.699219 907.609375 273.753906 912.28125 290.832031 C 916.957031 307.917969 906.90625 325.558594 889.835938 330.238281 Z M 945.128906 288.289062 L 941.84375 276.277344 L 928.257812 276.894531 C 927 274.25 925.539062 271.742188 923.886719 269.394531 L 931.082031 257.867188 L 922.234375 249.105469 L 910.777344 256.441406 C 908.394531 254.804688 905.875 253.371094 903.25 252.144531 L 903.722656 238.542969 L 891.679688 235.390625 L 885.425781 247.453125 C 882.574219 247.226562 879.675781 247.25 876.753906 247.515625 L 870.367188 235.507812 L 858.367188 238.792969 L 858.980469 252.386719 C 856.332031 253.644531 853.832031 255.105469 851.484375 256.75 L 839.964844 249.554688 L 831.210938 258.414062 L 838.539062 269.875 C 836.902344 272.265625 835.46875 274.789062 834.246094 277.40625 L 820.65625 276.9375 L 817.5 288.992188 L 829.554688 295.242188 C 829.328125 298.097656 829.351562 301.007812 829.617188 303.921875 L 817.621094 310.316406 L 820.90625 322.328125 L 834.488281 321.714844 C 835.75 324.359375 837.203125 326.867188 838.847656 329.210938 L 831.660156 340.742188 L 840.511719 349.5 L 851.96875 342.171875 C 854.355469 343.808594 856.871094 345.242188 859.488281 346.460938 L 859.027344 360.058594 L 871.070312 363.222656 L 877.3125 351.160156 C 880.171875 351.378906 883.070312 351.359375 885.984375 351.097656 L 892.378906 363.105469 L 904.386719 359.8125 L 903.773438 346.21875 C 906.410156 344.960938 908.917969 343.503906 911.261719 341.851562 L 922.777344 349.050781 L 931.535156 340.191406 L 924.203125 328.730469 C 925.84375 326.34375 927.277344 323.824219 928.496094 321.199219 L 942.089844 321.667969 L 945.246094 309.617188 L 933.1875 303.363281 C 933.40625 300.503906 933.386719 297.601562 933.125 294.683594 L 945.128906 288.289062 " fill-opacity="1" fill-rule="nonzero"/><path fill="#000000" d="M 881.417969 269.109375 C 878.75 269.109375 876.054688 269.46875 873.410156 270.195312 C 857.375 274.589844 847.898438 291.226562 852.289062 307.273438 C 854.421875 315.046875 859.4375 321.53125 866.4375 325.515625 C 873.4375 329.515625 881.566406 330.542969 889.332031 328.410156 C 905.375 324.015625 914.851562 307.386719 910.460938 291.328125 C 908.328125 283.558594 903.304688 277.078125 896.3125 273.085938 C 891.695312 270.457031 886.585938 269.109375 881.417969 269.109375 Z M 881.320312 333.277344 C 875.5 333.277344 869.757812 331.765625 864.566406 328.804688 C 856.691406 324.308594 851.039062 317.019531 848.636719 308.269531 C 843.699219 290.210938 854.359375 271.492188 872.410156 266.550781 C 881.152344 264.152344 890.300781 265.316406 898.183594 269.800781 C 906.058594 274.292969 911.710938 281.582031 914.097656 290.335938 C 919.042969 308.394531 908.378906 327.113281 890.332031 332.054688 C 887.359375 332.878906 884.328125 333.277344 881.320312 333.277344 Z M 860.964844 358.617188 L 870.082031 361.011719 L 876.210938 349.175781 L 877.460938 349.269531 C 880.1875 349.484375 883.003906 349.46875 885.8125 349.214844 L 887.066406 349.097656 L 893.335938 360.878906 L 902.425781 358.390625 L 901.820312 345.054688 L 902.953125 344.515625 C 905.507812 343.300781 907.929688 341.882812 910.171875 340.3125 L 911.199219 339.585938 L 922.492188 346.648438 L 929.125 339.9375 L 921.941406 328.695312 L 922.644531 327.664062 C 924.21875 325.371094 925.613281 322.929688 926.785156 320.402344 L 927.304688 319.265625 L 940.640625 319.726562 L 943.035156 310.601562 L 931.203125 304.464844 L 931.308594 303.214844 C 931.515625 300.480469 931.5 297.671875 931.238281 294.855469 L 931.128906 293.605469 L 942.90625 287.335938 L 940.410156 278.234375 L 927.089844 278.84375 L 926.550781 277.703125 C 925.339844 275.15625 923.921875 272.722656 922.347656 270.484375 L 921.625 269.457031 L 928.679688 258.148438 L 921.976562 251.515625 L 910.746094 258.707031 L 909.710938 257.996094 C 907.417969 256.425781 904.976562 255.035156 902.457031 253.863281 L 901.324219 253.332031 L 901.777344 239.988281 L 892.667969 237.601562 L 886.53125 249.4375 L 885.28125 249.335938 C 882.546875 249.121094 879.734375 249.140625 876.929688 249.394531 L 875.679688 249.511719 L 869.414062 237.726562 L 860.316406 240.214844 L 860.929688 253.554688 L 859.789062 254.089844 C 857.242188 255.304688 854.8125 256.71875 852.570312 258.300781 L 851.550781 259.019531 L 840.242188 251.964844 L 833.617188 258.667969 L 840.800781 269.910156 L 840.097656 270.945312 C 838.523438 273.246094 837.128906 275.6875 835.960938 278.207031 L 835.429688 279.339844 L 822.101562 278.882812 L 819.714844 288.011719 L 831.539062 294.136719 L 831.441406 295.386719 C 831.226562 298.121094 831.25 300.9375 831.496094 303.753906 L 831.613281 305.003906 L 819.839844 311.269531 L 822.324219 320.375 L 835.660156 319.769531 L 836.191406 320.898438 C 837.414062 323.453125 838.820312 325.882812 840.402344 328.125 L 841.117188 329.148438 L 834.066406 340.460938 L 840.765625 347.09375 L 852.003906 339.902344 L 853.039062 340.605469 C 855.332031 342.179688 857.773438 343.574219 860.285156 344.746094 L 861.425781 345.28125 Z M 872.050781 365.433594 L 857.082031 361.507812 L 857.5625 347.632812 C 855.628906 346.679688 853.742188 345.605469 851.949219 344.433594 L 840.253906 351.90625 L 829.253906 341.019531 L 836.597656 329.257812 C 835.410156 327.484375 834.320312 325.609375 833.332031 323.652344 L 819.480469 324.289062 L 815.398438 309.359375 L 827.640625 302.835938 C 827.492188 300.660156 827.472656 298.488281 827.589844 296.355469 L 815.289062 289.976562 L 819.210938 275 L 833.078125 275.476562 C 834.03125 273.546875 835.105469 271.664062 836.28125 269.855469 L 828.804688 258.15625 L 839.683594 247.152344 L 851.433594 254.5 C 853.214844 253.308594 855.089844 252.214844 857.035156 251.234375 L 856.40625 237.371094 L 871.332031 233.277344 L 877.839844 245.53125 C 880.023438 245.386719 882.179688 245.367188 884.316406 245.484375 L 890.695312 233.175781 L 905.664062 237.101562 L 905.1875 250.976562 C 907.113281 251.929688 909 253.007812 910.800781 254.179688 L 922.492188 246.699219 L 933.480469 257.589844 L 926.152344 269.34375 C 927.335938 271.125 928.429688 273.003906 929.410156 274.949219 L 943.269531 274.324219 L 947.347656 289.25 L 935.113281 295.773438 C 935.257812 297.949219 935.269531 300.125 935.152344 302.257812 L 947.453125 308.636719 L 943.53125 323.605469 L 929.664062 323.128906 C 928.710938 325.070312 927.636719 326.949219 926.460938 328.757812 L 933.9375 340.449219 L 923.058594 351.457031 L 911.304688 344.113281 C 909.53125 345.300781 907.660156 346.390625 905.714844 347.371094 L 906.339844 361.238281 L 891.417969 365.324219 L 884.894531 353.074219 C 882.71875 353.222656 880.554688 353.238281 878.425781 353.128906 L 872.050781 365.433594 " fill-opacity="1" fill-rule="nonzero"/><path fill="#000000" d="M 920 105.578125 L 920.007812 105.578125 Z M 929.847656 99.109375 C 925.957031 99.109375 922.511719 101.929688 921.859375 105.890625 C 921.511719 108.023438 922.015625 110.167969 923.273438 111.921875 C 924.53125 113.683594 926.40625 114.847656 928.535156 115.195312 C 930.675781 115.550781 932.8125 115.046875 934.574219 113.789062 C 936.324219 112.523438 937.492188 110.65625 937.84375 108.519531 C 938.1875 106.390625 937.695312 104.242188 936.433594 102.492188 C 935.167969 100.730469 933.300781 99.5625 931.171875 99.214844 C 930.722656 99.144531 930.28125 99.109375 929.847656 99.109375 Z M 929.878906 119.085938 C 929.222656 119.085938 928.570312 119.035156 927.917969 118.929688 C 924.785156 118.410156 922.042969 116.707031 920.199219 114.128906 C 918.351562 111.550781 917.621094 108.40625 918.132812 105.273438 C 919.195312 98.8125 925.316406 94.421875 931.78125 95.488281 C 934.914062 96 937.652344 97.703125 939.507812 100.28125 C 941.347656 102.859375 942.085938 106.003906 941.574219 109.136719 C 941.058594 112.269531 939.351562 115.011719 936.773438 116.855469 C 934.734375 118.316406 932.335938 119.085938 929.878906 119.085938 " fill-opacity="1" fill-rule="nonzero"/><path fill="#000000" d="M 58.753906 242.785156 L 58.765625 242.785156 Z M 68.589844 236.3125 C 66.914062 236.3125 65.28125 236.828125 63.890625 237.828125 C 62.132812 239.089844 60.972656 240.960938 60.621094 243.09375 C 59.894531 247.496094 62.886719 251.667969 67.292969 252.394531 C 69.421875 252.753906 71.566406 252.25 73.328125 250.988281 C 75.082031 249.730469 76.246094 247.859375 76.597656 245.726562 C 76.949219 243.59375 76.449219 241.445312 75.191406 239.6875 C 73.929688 237.929688 72.058594 236.773438 69.925781 236.421875 C 69.480469 236.347656 69.035156 236.3125 68.589844 236.3125 Z M 68.636719 256.285156 C 67.984375 256.285156 67.332031 256.238281 66.679688 256.128906 C 60.214844 255.0625 55.824219 248.941406 56.890625 242.476562 C 57.40625 239.351562 59.109375 236.605469 61.6875 234.757812 C 64.265625 232.90625 67.410156 232.171875 70.542969 232.6875 C 73.671875 233.207031 76.414062 234.910156 78.261719 237.488281 C 80.109375 240.0625 80.84375 243.210938 80.328125 246.339844 C 79.8125 249.472656 78.109375 252.214844 75.53125 254.058594 C 73.492188 255.523438 71.097656 256.285156 68.636719 256.285156 " fill-opacity="1" fill-rule="nonzero"/><path fill="#caddff" d="M 110.167969 269.003906 C 111.539062 260.671875 119.410156 255.035156 127.738281 256.410156 C 136.070312 257.78125 141.710938 265.644531 140.339844 273.976562 C 138.964844 282.3125 131.097656 287.949219 122.765625 286.574219 C 114.4375 285.207031 108.796875 277.339844 110.167969 269.003906 " fill-opacity="1" fill-rule="nonzero"/><path fill="#000000" d="M 852.6875 79.082031 C 851.574219 85.859375 856.179688 92.277344 862.957031 93.398438 C 866.234375 93.9375 869.53125 93.171875 872.242188 91.226562 C 874.945312 89.289062 876.730469 86.410156 877.269531 83.132812 C 878.394531 76.347656 873.78125 69.929688 867.003906 68.808594 C 863.71875 68.269531 860.425781 69.042969 857.722656 70.980469 C 855.011719 72.917969 853.230469 75.796875 852.6875 79.082031 Z M 864.984375 97.347656 C 864.113281 97.347656 863.226562 97.273438 862.335938 97.128906 C 853.503906 95.671875 847.5 87.300781 848.957031 78.460938 C 849.65625 74.183594 851.988281 70.433594 855.515625 67.90625 C 859.042969 65.378906 863.332031 64.378906 867.617188 65.078125 C 871.902344 65.785156 875.652344 68.117188 878.171875 71.644531 C 880.703125 75.171875 881.707031 79.46875 881 83.746094 C 879.695312 91.695312 872.789062 97.347656 864.984375 97.347656 " fill-opacity="1" fill-rule="nonzero"/><path fill="#000000" d="M 775.839844 61.617188 C 775.246094 61.617188 774.664062 61.34375 774.296875 60.828125 L 768.140625 52.183594 C 767.535156 51.335938 767.734375 50.15625 768.585938 49.550781 C 769.441406 48.945312 770.613281 49.144531 771.21875 49.992188 L 777.375 58.628906 C 777.988281 59.484375 777.789062 60.664062 776.9375 61.269531 C 776.601562 61.507812 776.214844 61.617188 775.839844 61.617188 " fill-opacity="1" fill-rule="nonzero"/><path fill="#000000" d="M 797.386719 91.855469 C 796.796875 91.855469 796.214844 91.582031 795.847656 91.0625 L 789.691406 82.421875 C 789.085938 81.570312 789.277344 80.390625 790.128906 79.789062 C 790.984375 79.183594 792.164062 79.375 792.769531 80.234375 L 798.925781 88.867188 C 799.53125 89.71875 799.339844 90.894531 798.480469 91.507812 C 798.152344 91.738281 797.761719 91.855469 797.386719 91.855469 " fill-opacity="1" fill-rule="nonzero"/><path fill="#000000" d="M 764.175781 86.382812 C 763.589844 86.382812 763.015625 86.105469 762.644531 85.59375 C 762.035156 84.753906 762.226562 83.570312 763.074219 82.957031 L 771.679688 76.75 C 772.519531 76.136719 773.703125 76.332031 774.3125 77.175781 C 774.921875 78.023438 774.734375 79.207031 773.882812 79.816406 L 765.277344 86.023438 C 764.949219 86.265625 764.558594 86.382812 764.175781 86.382812 " fill-opacity="1" fill-rule="nonzero"/><path fill="#000000" d="M 794.289062 64.664062 C 793.703125 64.664062 793.121094 64.390625 792.753906 63.875 C 792.144531 63.03125 792.335938 61.847656 793.179688 61.238281 L 801.78125 55.03125 C 802.632812 54.421875 803.8125 54.613281 804.421875 55.457031 C 805.035156 56.300781 804.839844 57.484375 803.992188 58.101562 L 795.398438 64.304688 C 795.0625 64.546875 794.671875 64.664062 794.289062 64.664062 " fill-opacity="1" fill-rule="nonzero"/><path fill="#000000" d="M 68.414062 580.664062 C 67.820312 580.664062 67.242188 580.382812 66.871094 579.867188 L 60.714844 571.230469 C 60.109375 570.378906 60.304688 569.203125 61.15625 568.59375 C 62.011719 567.988281 63.1875 568.183594 63.792969 569.035156 L 69.949219 577.675781 C 70.558594 578.523438 70.359375 579.707031 69.507812 580.3125 C 69.175781 580.550781 68.792969 580.664062 68.414062 580.664062 " fill-opacity="1" fill-rule="nonzero"/><path fill="#000000" d="M 89.960938 610.898438 C 89.371094 610.898438 88.789062 610.621094 88.421875 610.101562 L 82.261719 601.464844 C 81.660156 600.617188 81.855469 599.4375 82.707031 598.828125 C 83.558594 598.222656 84.738281 598.417969 85.34375 599.273438 L 91.5 607.910156 C 92.105469 608.757812 91.90625 609.941406 91.058594 610.546875 C 90.722656 610.785156 90.34375 610.898438 89.960938 610.898438 " fill-opacity="1" fill-rule="nonzero"/><path fill="#000000" d="M 56.75 605.425781 C 56.164062 605.425781 55.585938 605.152344 55.214844 604.640625 C 54.605469 603.792969 54.796875 602.609375 55.640625 602 L 64.246094 595.792969 C 65.09375 595.183594 66.277344 595.378906 66.886719 596.21875 C 67.496094 597.066406 67.304688 598.253906 66.457031 598.863281 L 57.855469 605.070312 C 57.519531 605.304688 57.132812 605.425781 56.75 605.425781 " fill-opacity="1" fill-rule="nonzero"/><path fill="#000000" d="M 86.863281 583.703125 C 86.277344 583.703125 85.699219 583.429688 85.328125 582.917969 C 84.71875 582.070312 84.90625 580.890625 85.753906 580.277344 L 94.359375 574.070312 C 95.207031 573.460938 96.390625 573.652344 97 574.503906 C 97.609375 575.347656 97.417969 576.53125 96.570312 577.140625 L 87.964844 583.347656 C 87.632812 583.585938 87.246094 583.703125 86.863281 583.703125 " fill-opacity="1" fill-rule="nonzero"/><path fill="#f5f5f5" d="M 53.75 127.90625 C 53.796875 90.066406 84.515625 59.25 122.355469 59.089844 C 160.199219 58.921875 190.835938 89.457031 190.789062 127.296875 C 190.738281 165.136719 160.019531 195.945312 122.175781 196.113281 C 84.335938 196.28125 53.699219 165.738281 53.75 127.90625 " fill-opacity="1" fill-rule="nonzero"/><path fill="#000000" d="M 122.667969 60.976562 C 122.566406 60.976562 122.46875 60.976562 122.367188 60.976562 C 85.621094 61.140625 55.6875 91.164062 55.640625 127.90625 C 55.613281 145.695312 62.519531 162.394531 75.082031 174.921875 C 87.578125 187.375 104.183594 194.21875 121.867188 194.226562 C 121.96875 194.226562 122.066406 194.21875 122.167969 194.21875 C 158.914062 194.058594 188.847656 164.035156 188.898438 127.296875 C 188.917969 109.5 182.015625 92.8125 169.449219 80.285156 C 156.953125 67.832031 140.351562 60.976562 122.667969 60.976562 Z M 121.867188 198 C 103.171875 198 85.625 190.769531 72.414062 177.597656 C 59.132812 164.355469 51.835938 146.707031 51.859375 127.898438 C 51.910156 89.085938 83.53125 57.371094 122.351562 57.195312 C 122.457031 57.195312 122.5625 57.195312 122.667969 57.195312 C 141.359375 57.195312 158.910156 64.4375 172.121094 77.601562 C 185.402344 90.847656 192.703125 108.5 192.679688 127.296875 C 192.625 166.117188 161.003906 197.832031 122.183594 198 C 122.078125 198 121.972656 198 121.867188 198 " fill-opacity="1" fill-rule="nonzero"/><path fill="#014bb1" d="M 157.027344 95.796875 L 136.148438 108.066406 C 135.066406 108.699219 135.035156 110.253906 136.089844 110.925781 L 139.175781 112.914062 C 139.957031 113.417969 140.183594 114.460938 139.683594 115.242188 L 130.003906 130.335938 C 129.5 131.117188 128.457031 131.34375 127.675781 130.84375 L 109.714844 119.324219 C 108.933594 118.820312 107.890625 119.046875 107.390625 119.835938 L 85.78125 153.320312 C 85.28125 154.109375 85.507812 155.140625 86.292969 155.648438 L 92.855469 159.855469 C 93.636719 160.359375 94.679688 160.132812 95.183594 159.351562 L 110.765625 135.265625 C 111.269531 134.476562 112.308594 134.246094 113.089844 134.753906 L 131.046875 146.273438 C 131.832031 146.769531 132.871094 146.542969 133.371094 145.761719 L 149.066406 121.289062 C 149.570312 120.507812 150.613281 120.28125 151.394531 120.785156 L 154.722656 122.921875 C 155.785156 123.609375 157.191406 122.921875 157.308594 121.664062 L 159.554688 97.398438 C 159.683594 96.039062 158.210938 95.097656 157.027344 95.796875 " fill-opacity="1" fill-rule="nonzero"/><path fill="#014bb1" d="M 435.742188 89.46875 C 477.117188 89.472656 516.242188 108.195312 557.371094 156.960938 L 387.039062 157.183594 C 370.859375 157.183594 357.226562 168.75 354.691406 184.726562 C 351.683594 203.679688 351.628906 227.425781 354.917969 239.992188 C 359.503906 257.496094 363.917969 269.886719 367.574219 278.472656 C 372.195312 289.300781 368.683594 301.902344 359.175781 308.855469 L 351.707031 314.328125 C 341.019531 322.15625 326.105469 320.480469 317.460938 310.441406 C 306.21875 297.394531 291.628906 277.800781 282.058594 254.917969 C 258.078125 197.582031 276.375 107.09375 356.066406 91.296875 C 373.054688 87.925781 426.898438 89.46875 435.742188 89.46875 " fill-opacity="1" fill-rule="nonzero"/><path fill="#f5f5f5" d="M 450.753906 155.671875 C 446.421875 146.0625 434.949219 142 425.3125 146.289062 C 417.871094 149.597656 408.210938 154.351562 405.410156 157.824219 C 402.058594 161.976562 396.628906 174.941406 401.160156 184.863281 C 405.21875 193.757812 416.585938 196.101562 424.324219 190.121094 C 428.382812 186.988281 432.582031 181.753906 435.175781 173.007812 C 436.617188 168.152344 439.910156 163.960938 444.554688 161.949219 C 445.8125 161.40625 447.179688 160.988281 448.644531 160.820312 C 450.589844 160.582031 451.828125 158.640625 451.195312 156.78125 C 451.085938 156.449219 450.9375 156.082031 450.753906 155.671875 " fill-opacity="1" fill-rule="nonzero"/><path fill="#000000" d="M 433.320312 146.464844 C 430.902344 146.464844 428.441406 146.964844 426.085938 148.007812 C 412.066406 154.25 408.035156 157.578125 406.882812 159.011719 C 403.980469 162.609375 398.707031 174.9375 402.878906 184.074219 C 404.5 187.621094 407.621094 190.199219 411.433594 191.140625 C 415.511719 192.152344 419.792969 191.230469 423.167969 188.625 C 427.816406 185.035156 431.246094 179.597656 433.367188 172.464844 C 435.039062 166.824219 438.847656 162.355469 443.804688 160.214844 C 445.324219 159.550781 446.878906 159.121094 448.417969 158.9375 C 448.917969 158.875 449.179688 158.570312 449.292969 158.390625 C 449.402344 158.21875 449.566406 157.851562 449.40625 157.390625 C 449.3125 157.109375 449.1875 156.789062 449.03125 156.449219 C 446.207031 150.175781 439.925781 146.464844 433.320312 146.464844 Z M 414.71875 195.324219 C 413.320312 195.324219 411.914062 195.152344 410.523438 194.8125 C 405.582031 193.59375 401.542969 190.25 399.441406 185.644531 C 394.613281 175.074219 399.988281 161.535156 403.941406 156.636719 C 406.367188 153.625 413.300781 149.5625 424.546875 144.554688 C 435.234375 139.800781 447.765625 144.4375 452.476562 154.890625 L 452.476562 154.898438 C 452.6875 155.363281 452.859375 155.792969 452.988281 156.175781 C 453.46875 157.601562 453.289062 159.140625 452.492188 160.410156 C 451.691406 161.679688 450.371094 162.511719 448.867188 162.6875 C 447.695312 162.832031 446.492188 163.167969 445.308594 163.679688 C 441.378906 165.378906 438.351562 168.976562 436.988281 173.546875 C 434.640625 181.453125 430.769531 187.535156 425.480469 191.613281 C 422.332031 194.046875 418.554688 195.324219 414.71875 195.324219 " fill-opacity="1" fill-rule="nonzero"/><path fill="#f5f5f5" d="M 378.761719 333.992188 C 380.023438 336.078125 381.464844 338.589844 382.390625 343.121094 L 386.191406 364.15625 L 373.578125 364.179688 C 371.488281 364.179688 369.476562 364.953125 367.902344 366.328125 C 367.894531 366.339844 367.886719 366.34375 367.878906 366.351562 C 366.191406 367.820312 365.429688 370.078125 365.851562 372.269531 C 366.707031 376.707031 370.015625 389.621094 370.050781 391.65625 C 370.097656 394.683594 370.582031 398.960938 368.574219 401.414062 L 368.050781 402.046875 C 365.945312 404.566406 361.914062 403.929688 360.730469 400.875 L 349.464844 371.246094 C 347.992188 367.460938 347.882812 363.277344 349.148438 359.402344 L 355.699219 339.371094 C 357.175781 334.859375 355.914062 329.914062 352.464844 326.671875 L 327.828125 306.167969 C 318.914062 297.878906 335.675781 282.527344 335.675781 282.527344 C 341.199219 278.644531 348.921875 280.15625 352.570312 285.460938 L 378.761719 333.992188 " fill-opacity="1" fill-rule="nonzero"/><path fill="#000000" d="M 336.859375 284.007812 C 334.066406 286.601562 327.125 294.308594 327.105469 300.199219 C 327.097656 302.023438 327.753906 303.527344 329.113281 304.789062 L 353.675781 325.21875 C 357.722656 329.023438 359.191406 334.785156 357.496094 339.964844 L 350.945312 359.992188 C 349.816406 363.441406 349.917969 367.191406 351.226562 370.5625 L 362.496094 400.210938 C 362.800781 401 363.472656 401.542969 364.328125 401.679688 C 365.1875 401.820312 366.035156 401.507812 366.59375 400.832031 L 367.125 400.207031 C 368.386719 398.660156 368.28125 395.550781 368.195312 393.054688 C 368.179688 392.582031 368.164062 392.121094 368.15625 391.691406 C 368.140625 390.65625 366.730469 384.640625 365.800781 380.660156 C 365.046875 377.441406 364.335938 374.40625 363.992188 372.628906 C 363.441406 369.773438 364.457031 366.824219 366.640625 364.921875 C 368.589844 363.226562 371.046875 362.292969 373.574219 362.289062 L 383.929688 362.269531 L 380.527344 343.460938 C 379.703125 339.414062 378.453125 337.140625 377.144531 334.976562 C 377.125 334.945312 377.109375 334.921875 377.09375 334.890625 L 350.953125 286.457031 C 349.480469 284.359375 347.128906 282.890625 344.484375 282.410156 C 341.777344 281.921875 339.078125 282.488281 336.859375 284.007812 Z M 364.746094 405.5 C 364.40625 405.5 364.0625 405.46875 363.71875 405.414062 C 361.539062 405.0625 359.761719 403.617188 358.964844 401.5625 L 347.695312 371.917969 C 346.074219 367.753906 345.953125 363.09375 347.351562 358.816406 L 353.902344 338.789062 C 355.140625 334.992188 354.070312 330.777344 351.167969 328.050781 L 326.613281 307.628906 C 324.394531 305.566406 323.3125 303.078125 323.324219 300.179688 C 323.359375 291.351562 333.949219 281.546875 334.398438 281.132812 C 334.457031 281.078125 334.519531 281.027344 334.585938 280.976562 C 337.65625 278.828125 341.40625 278.015625 345.15625 278.6875 C 348.820312 279.355469 352.089844 281.425781 354.125 284.390625 C 354.164062 284.449219 354.199219 284.503906 354.230469 284.5625 L 380.398438 333.058594 C 381.824219 335.40625 383.292969 338.09375 384.242188 342.75 L 388.050781 363.824219 C 388.152344 364.371094 388.003906 364.941406 387.640625 365.371094 C 387.285156 365.800781 386.753906 366.046875 386.195312 366.050781 L 373.582031 366.070312 C 371.964844 366.070312 370.390625 366.671875 369.144531 367.753906 C 367.949219 368.792969 367.410156 370.378906 367.707031 371.914062 C 368.035156 373.617188 368.734375 376.617188 369.480469 379.796875 C 370.996094 386.257812 371.917969 390.285156 371.9375 391.632812 C 371.945312 392.042969 371.960938 392.472656 371.976562 392.925781 C 372.082031 396.058594 372.210938 399.957031 370.039062 402.613281 L 369.496094 403.257812 C 368.296875 404.703125 366.570312 405.5 364.746094 405.5 " fill-opacity="1" fill-rule="nonzero"/><path fill="#f5f5f5" d="M 415.332031 123.972656 C 416.519531 123.683594 417.609375 123.113281 418.546875 122.335938 L 432.984375 110.359375 C 434.535156 109.398438 436.523438 109.535156 437.90625 110.691406 L 448.234375 119.460938 C 449.5625 120.570312 451.480469 120.65625 452.921875 119.667969 L 465.984375 110.714844 L 472.355469 112.761719 C 472.855469 112.925781 473.390625 112.65625 473.566406 112.160156 L 477.75 100.417969 C 479.539062 96.328125 485.667969 89.636719 484.066406 88.121094 C 484.066406 88.121094 465.351562 46.617188 444.761719 56.332031 C 441.777344 57.738281 439.472656 60.273438 438.148438 63.289062 L 435.390625 69.605469 C 432.609375 75.941406 418.480469 90.449219 403.632812 94.222656 C 401.65625 94.71875 396.539062 95.125 392.546875 95.382812 C 389.570312 95.570312 387.570312 98.460938 388.378906 101.328125 C 389.335938 104.722656 391.109375 109.433594 394.386719 114.875 C 398.691406 122.019531 407.027344 125.878906 415.15625 124.007812 C 415.21875 123.996094 415.277344 123.984375 415.332031 123.972656 " fill-opacity="1" fill-rule="nonzero"/><path fill="#000000" d="M 482.761719 89.496094 C 482.761719 89.496094 482.761719 89.496094 482.765625 89.5 C 482.761719 89.496094 482.761719 89.496094 482.761719 89.496094 Z M 451.144531 56.746094 C 449.25 56.746094 447.398438 57.179688 445.5625 58.046875 C 443.082031 59.21875 441.0625 61.355469 439.878906 64.054688 L 437.117188 70.367188 C 434.21875 76.976562 419.945312 92.042969 404.097656 96.058594 C 402.394531 96.492188 398.546875 96.898438 392.664062 97.273438 C 391.820312 97.332031 391.085938 97.738281 390.601562 98.421875 C 390.109375 99.121094 389.960938 99.996094 390.195312 100.820312 C 391.027344 103.773438 392.707031 108.4375 396 113.90625 C 399.988281 120.503906 407.507812 123.832031 414.734375 122.175781 L 414.894531 122.140625 C 415.761719 121.925781 416.589844 121.503906 417.335938 120.890625 L 431.773438 108.914062 C 431.84375 108.855469 431.917969 108.804688 431.988281 108.761719 C 434.234375 107.371094 437.101562 107.5625 439.113281 109.246094 L 449.457031 118.023438 C 450.117188 118.585938 451.105469 118.621094 451.847656 118.113281 L 464.910156 109.160156 C 465.390625 108.828125 466 108.738281 466.558594 108.914062 L 472.082031 110.695312 L 475.964844 99.789062 C 475.984375 99.753906 476 99.707031 476.015625 99.671875 C 476.765625 97.964844 478.117188 95.957031 479.429688 94.019531 C 480.519531 92.40625 482.132812 90.023438 482.402344 89.023438 C 482.378906 88.988281 482.359375 88.941406 482.34375 88.90625 C 482.226562 88.648438 470.5 62.996094 456.09375 57.6875 C 454.398438 57.0625 452.75 56.746094 451.144531 56.746094 Z M 411.011719 126.378906 C 403.722656 126.378906 396.757812 122.476562 392.765625 115.855469 C 389.949219 111.179688 387.859375 106.464844 386.554688 101.851562 C 386.007812 99.914062 386.359375 97.867188 387.515625 96.242188 C 388.660156 94.625 390.445312 93.621094 392.425781 93.5 C 397.914062 93.152344 401.726562 92.753906 403.167969 92.394531 C 417.023438 88.875 430.980469 74.960938 433.648438 68.851562 L 436.417969 62.539062 C 437.964844 59 440.640625 56.1875 443.949219 54.628906 C 448.246094 52.597656 452.773438 52.433594 457.40625 54.144531 C 472.636719 59.75 484.273438 84.078125 485.664062 87.082031 C 487.296875 89.140625 485.191406 92.253906 482.5625 96.140625 C 481.363281 97.914062 480.121094 99.746094 479.507812 101.128906 L 475.34375 112.800781 C 474.824219 114.265625 473.257812 115.046875 471.777344 114.566406 L 466.28125 112.800781 L 453.980469 121.234375 C 451.851562 122.691406 448.988281 122.558594 447.019531 120.917969 L 436.675781 112.140625 C 435.953125 111.535156 434.917969 111.449219 434.078125 111.917969 L 419.75 123.792969 C 418.570312 124.773438 417.191406 125.472656 415.769531 125.8125 L 415.585938 125.855469 C 414.0625 126.210938 412.527344 126.378906 411.011719 126.378906 " fill-opacity="1" fill-rule="nonzero"/><path fill="#000000" d="M 514.453125 71.742188 C 509.625 62.621094 501.660156 66.742188 497.039062 40.84375 C 494.265625 25.277344 481.761719 41.351562 480.695312 37.390625 C 476.761719 22.757812 476.910156 23.25 471.632812 18.148438 C 468.132812 14.773438 459.109375 16.667969 454.011719 20.796875 C 447.28125 26.246094 440.550781 41.535156 432.640625 56.347656 C 428.542969 64.015625 432 76.089844 446.484375 73.761719 C 451.015625 73.03125 451.308594 65.980469 455.28125 66.792969 C 465.605469 68.894531 457.117188 77.625 463.167969 80.683594 C 468.980469 83.621094 472.082031 84.410156 479.585938 86.703125 C 488.667969 89.464844 488.335938 100.160156 502.753906 96.304688 C 510.273438 94.285156 521.066406 84.226562 514.453125 71.742188 " fill-opacity="1" fill-rule="nonzero"/><path fill="#f5f5f5" d="M 914.320312 930.28125 C 915.058594 931.421875 943 971.375 943 971.375 C 943 971.375 939.085938 985.242188 931.847656 987.222656 L 898.617188 951.261719 L 914.320312 930.28125 " fill-opacity="1" fill-rule="nonzero"/><path fill="#000000" d="M 901.082031 951.140625 L 932.371094 985 C 936.59375 982.902344 939.734375 975.453125 940.925781 971.707031 C 937.007812 966.097656 919.582031 941.179688 914.265625 933.519531 Z M 931.847656 989.109375 C 931.332031 989.109375 930.828125 988.902344 930.460938 988.503906 L 897.230469 952.542969 C 896.617188 951.878906 896.558594 950.859375 897.109375 950.132812 L 912.8125 929.148438 C 913.183594 928.65625 913.753906 928.390625 914.394531 928.390625 C 915.015625 928.414062 915.582031 928.738281 915.917969 929.261719 C 916.5625 930.269531 936.804688 959.21875 944.546875 970.292969 C 944.871094 970.753906 944.976562 971.339844 944.824219 971.890625 C 944.386719 973.414062 940.386719 986.847656 932.351562 989.042969 C 932.183594 989.089844 932.011719 989.109375 931.847656 989.109375 " fill-opacity="1" fill-rule="nonzero"/><path fill="#f5f5f5" d="M 961.765625 982.007812 C 961.765625 982.007812 953.433594 1014.296875 939.5 1030.898438 C 925.574219 1047.503906 902.425781 1041.523438 902.425781 1041.523438 C 902.425781 1041.523438 900.726562 1027.484375 903.625 1023.835938 C 906.527344 1020.179688 922.554688 1000.664062 922.511719 983.125 L 929.636719 972.296875 L 934.671875 978.8125 L 941.40625 964.984375 L 961.765625 982.007812 " fill-opacity="1" fill-rule="nonzero"/><path fill="#000000" d="M 904.160156 1039.953125 C 909.027344 1040.847656 926.878906 1043.011719 938.0625 1029.679688 C 950.089844 1015.34375 958.003906 988.53125 959.628906 982.675781 L 942.058594 967.980469 L 936.371094 979.636719 C 936.085938 980.222656 935.519531 980.621094 934.867188 980.691406 C 934.214844 980.753906 933.578125 980.480469 933.179688 979.960938 L 929.769531 975.554688 L 924.410156 983.691406 C 924.269531 991.820312 920.78125 1005.378906 905.421875 1024.625 L 905.109375 1025.003906 C 903.585938 1026.929688 903.628906 1034.46875 904.160156 1039.953125 Z M 912.332031 1044.496094 C 906.542969 1044.496094 902.359375 1043.460938 901.953125 1043.355469 C 901.195312 1043.160156 900.644531 1042.527344 900.554688 1041.75 C 900.25 1039.277344 898.929688 1026.71875 902.148438 1022.65625 L 902.464844 1022.261719 C 917.511719 1003.414062 920.652344 990.574219 920.628906 983.128906 C 920.628906 982.75 920.742188 982.390625 920.9375 982.082031 L 928.066406 971.257812 C 928.402344 970.746094 928.964844 970.433594 929.574219 970.410156 C 930.203125 970.390625 930.769531 970.664062 931.140625 971.144531 L 934.3125 975.242188 L 939.71875 964.148438 C 939.976562 963.625 940.453125 963.246094 941.019531 963.128906 C 941.59375 963.007812 942.183594 963.152344 942.632812 963.527344 L 962.984375 980.550781 C 963.550781 981.019531 963.789062 981.769531 963.605469 982.476562 C 963.257812 983.808594 955 1015.371094 940.957031 1032.113281 C 932.378906 1042.339844 920.679688 1044.496094 912.332031 1044.496094 " fill-opacity="1" fill-rule="nonzero"/><path fill="#f5f5f5" d="M 950.496094 984.382812 C 950.496094 984.382812 941.722656 1032.117188 907.988281 1035.664062 L 950.496094 984.382812 " fill-opacity="1" fill-rule="nonzero"/><path fill="#000000" d="M 907.984375 1037.554688 C 907.027344 1037.554688 906.210938 1036.832031 906.105469 1035.863281 C 906 1034.824219 906.75 1033.894531 907.792969 1033.78125 C 939.714844 1030.425781 948.554688 984.503906 948.636719 984.042969 C 948.832031 983.019531 949.816406 982.332031 950.84375 982.527344 C 951.863281 982.714844 952.550781 983.703125 952.351562 984.726562 C 951.992188 986.730469 942.933594 1033.890625 908.183594 1037.542969 C 908.117188 1037.550781 908.054688 1037.554688 907.984375 1037.554688 " fill-opacity="1" fill-rule="nonzero"/><path fill="#f5f5f5" d="M 897.03125 968.253906 C 897.191406 969.960938 895.421875 993.90625 887.996094 1008.945312 C 887.996094 1008.945312 893.605469 1020.054688 904.101562 1018.074219 C 904.101562 1018.074219 917.128906 989.453125 919.691406 967.664062 L 897.03125 968.253906 " fill-opacity="1" fill-rule="nonzero"/><path fill="#000000" d="M 890.140625 1008.867188 C 891.488281 1011.078125 895.84375 1017.101562 902.804688 1016.351562 C 904.949219 1011.460938 914.804688 988.332031 917.535156 969.609375 L 898.882812 970.09375 C 898.523438 976.523438 896.304688 995.722656 890.140625 1008.867188 Z M 901.691406 1020.1875 C 893.761719 1020.1875 888.257812 1013.640625 886.324219 1009.792969 C 886.050781 1009.261719 886.046875 1008.636719 886.308594 1008.105469 C 893.296875 993.964844 895.308594 970.742188 895.15625 968.417969 C 895.125 967.902344 895.296875 967.375 895.648438 966.996094 C 895.992188 966.621094 896.480469 966.375 896.992188 966.363281 L 919.652344 965.777344 C 920.226562 965.742188 920.730469 965.988281 921.101562 966.390625 C 921.472656 966.796875 921.640625 967.34375 921.582031 967.882812 C 919.011719 989.714844 906.367188 1017.671875 905.828125 1018.851562 C 905.578125 1019.414062 905.0625 1019.8125 904.464844 1019.925781 C 903.507812 1020.109375 902.582031 1020.1875 901.691406 1020.1875 " fill-opacity="1" fill-rule="nonzero"/><path fill="#f5f5f5" d="M 912.289062 1003.90625 C 912.289062 1003.90625 914.253906 1026.984375 912.332031 1039.179688 C 911.839844 1042.238281 909.636719 1044.726562 906.683594 1045.648438 C 897.273438 1048.570312 869.117188 1057.46875 842.367188 1056.609375 C 836.230469 1056.410156 832.972656 1052.289062 832.171875 1049.957031 C 829.96875 1043.535156 833.023438 1034.800781 842.515625 1026.214844 C 856.308594 1013.730469 888.261719 994.898438 888.261719 994.898438 L 897.960938 1006.554688 L 895.457031 1017.992188 L 912.289062 1003.90625 " fill-opacity="1" fill-rule="nonzero"/><path fill="#000000" d="M 887.847656 997.34375 C 881.585938 1001.097656 855.671875 1016.863281 843.789062 1027.613281 C 835.53125 1035.085938 831.859375 1043.203125 833.96875 1049.34375 C 834.457031 1050.777344 836.933594 1054.539062 842.429688 1054.714844 C 868.453125 1055.558594 895.488281 1047.148438 905.667969 1043.976562 L 906.132812 1043.835938 C 908.441406 1043.125 910.097656 1041.222656 910.46875 1038.882812 C 911.882812 1029.921875 911.132812 1014.683594 910.675781 1007.726562 L 896.675781 1019.441406 C 896.0625 1019.960938 895.183594 1020.03125 894.484375 1019.613281 C 893.792969 1019.195312 893.449219 1018.378906 893.617188 1017.59375 L 895.925781 1007.046875 Z M 846.105469 1058.554688 C 844.839844 1058.554688 843.570312 1058.539062 842.308594 1058.492188 C 834.949219 1058.257812 831.292969 1053.207031 830.394531 1050.574219 C 827.742188 1042.847656 831.695312 1033.457031 841.25 1024.8125 C 855.03125 1012.335938 885.992188 994.039062 887.304688 993.269531 C 888.109375 992.796875 889.128906 992.972656 889.71875 993.683594 L 899.421875 1005.339844 C 899.796875 1005.789062 899.945312 1006.378906 899.816406 1006.957031 L 898.496094 1012.992188 L 911.085938 1002.453125 C 911.621094 1002.003906 912.367188 1001.890625 913.019531 1002.15625 C 913.675781 1002.429688 914.121094 1003.039062 914.179688 1003.742188 C 914.257812 1004.695312 916.140625 1027.191406 914.207031 1039.46875 C 913.609375 1043.242188 910.945312 1046.300781 907.246094 1047.453125 L 906.796875 1047.59375 C 896.9375 1050.65625 871.527344 1058.554688 846.105469 1058.554688 " fill-opacity="1" fill-rule="nonzero"/><path fill="#f5f5f5" d="M 899.902344 1038.410156 C 899.902344 1038.410156 878.027344 1048.273438 844.089844 1049.097656 L 899.902344 1038.410156 " fill-opacity="1" fill-rule="nonzero"/><path fill="#000000" d="M 844.09375 1050.988281 C 843.078125 1050.988281 842.230469 1050.175781 842.203125 1049.144531 C 842.183594 1048.101562 843.003906 1047.238281 844.046875 1047.207031 C 877.21875 1046.398438 898.917969 1036.785156 899.125 1036.691406 C 900.078125 1036.257812 901.195312 1036.683594 901.632812 1037.636719 C 902.058594 1038.585938 901.632812 1039.710938 900.679688 1040.136719 C 899.773438 1040.546875 878.074219 1050.164062 844.136719 1050.988281 C 844.132812 1050.988281 844.113281 1050.988281 844.09375 1050.988281 " fill-opacity="1" fill-rule="nonzero"/><path fill="#000000" d="M 848.566406 655.074219 C 848.566406 655.074219 806.464844 748.398438 806.296875 812.109375 C 806.140625 875.816406 905.488281 963.726562 905.488281 963.726562 L 924.109375 947.582031 C 924.109375 947.582031 883.867188 894.742188 877.515625 847.171875 C 871.171875 799.613281 897.53125 727.496094 897.53125 727.496094 L 904.722656 664.074219 L 848.566406 655.074219 " fill-opacity="1" fill-rule="nonzero"/><path fill="#000000" d="M 949.457031 655.074219 C 949.457031 655.074219 972.179688 795.085938 923.347656 979.675781 L 888.675781 974.050781 C 888.675781 974.050781 907.882812 813.703125 869.820312 728.394531 L 861.339844 651.292969 L 949.457031 655.074219 " fill-opacity="1" fill-rule="nonzero"/><path fill="#f5f5f5" d="M 888.28125 814.125 C 888.273438 814.125 888.273438 814.125 888.273438 814.125 C 887.234375 814.121094 886.386719 813.265625 886.394531 812.222656 C 886.511719 791.308594 880.609375 751.386719 872.203125 739.101562 C 871.617188 738.238281 871.835938 737.0625 872.699219 736.472656 C 873.558594 735.882812 874.738281 736.105469 875.320312 736.964844 C 884.441406 750.289062 890.300781 791.101562 890.175781 812.246094 C 890.167969 813.28125 889.324219 814.125 888.28125 814.125 " fill-opacity="1" fill-rule="nonzero"/><path fill="#4285f3" d="M 891.164062 934.761719 C 891.132812 934.761719 891.101562 934.757812 891.0625 934.757812 C 890.015625 934.699219 889.21875 933.804688 889.277344 932.765625 C 890.363281 913.25 889.777344 888.613281 889.769531 888.371094 C 889.75 887.328125 890.574219 886.460938 891.617188 886.433594 C 892.644531 886.453125 893.53125 887.230469 893.550781 888.277344 C 893.558594 888.519531 894.148438 913.308594 893.054688 932.976562 C 892.992188 933.984375 892.164062 934.761719 891.164062 934.761719 " fill-opacity="1" fill-rule="nonzero"/><path fill="#000000" d="M 940.007812 440.824219 C 943.945312 448.75 938.351562 451.542969 941.082031 466.929688 C 943.097656 478.226562 947.15625 482.554688 944.457031 488.179688 C 942.027344 493.242188 936.175781 495.066406 932.320312 496.273438 C 914.777344 501.738281 897.878906 492.851562 887.507812 487.390625 C 879.109375 482.972656 867.597656 476.914062 868.378906 470.773438 C 869.136719 464.714844 881.003906 465.566406 886.582031 455.402344 C 891.074219 447.222656 885.910156 442.089844 890.636719 435.179688 C 896.753906 426.230469 911.003906 426.605469 913.292969 426.660156 C 922.464844 426.898438 935.15625 431.074219 940.007812 440.824219 " fill-opacity="1" fill-rule="nonzero"/><path fill="#f5f5f5" d="M 842.015625 487.652344 L 888.136719 499.199219 C 888.972656 499.382812 889.820312 498.914062 890.105469 498.109375 C 893.246094 489.269531 888.359375 479.378906 886.949219 476.8125 C 886.726562 476.414062 886.339844 476.128906 885.890625 476.003906 C 883.609375 475.386719 881.546875 474.574219 879.695312 473.589844 C 877.402344 472.375 876.464844 469.574219 877.511719 467.203125 C 879.195312 463.386719 881.035156 458.238281 882.066406 456.128906 C 882.320312 455.613281 882.3125 455 881.996094 454.53125 C 881.207031 453.359375 879.988281 452.476562 880.128906 450.730469 C 880.1875 450.066406 880.640625 449.480469 881.285156 449.289062 C 887.074219 447.585938 891.554688 438.882812 895.421875 436.238281 C 897.269531 434.980469 898.515625 434.648438 900.585938 433.511719 C 900.933594 433.320312 901.347656 433.242188 901.734375 433.320312 C 911.574219 435.457031 896.488281 447.675781 909.386719 454.84375 C 910.035156 455.207031 910.421875 455.929688 910.269531 456.648438 C 910.046875 457.71875 910.089844 459.152344 910.226562 460.464844 C 910.226562 460.484375 910.234375 460.496094 910.234375 460.515625 C 910.363281 461.84375 911.933594 462.488281 912.972656 461.640625 C 914.917969 460.058594 916.917969 459.59375 918.09375 460.289062 C 919.765625 461.257812 919.65625 464.488281 919.0625 466.417969 C 917.886719 470.273438 913.871094 472.046875 911.582031 472.765625 C 910.703125 473.039062 910.207031 473.953125 910.460938 474.835938 C 911.988281 480.136719 916.609375 496.699219 916.960938 504.222656 C 916.996094 504.992188 917.53125 505.640625 918.289062 505.804688 L 927.089844 507.738281 C 940.339844 510.640625 956.074219 518.65625 966.207031 527.671875 C 966.207031 527.671875 984.902344 542.265625 983.945312 543.234375 C 956.539062 571.101562 902.722656 553.671875 882.789062 544.835938 C 863.476562 536.265625 840.714844 487.367188 842.015625 487.652344 " fill-opacity="1" fill-rule="nonzero"/><path fill="#000000" d="M 888.585938 497.371094 L 888.597656 497.371094 Z M 844.90625 490.335938 C 849.515625 500.890625 867.839844 536.148438 883.550781 543.113281 C 890.449219 546.167969 951.109375 571.839844 981.519531 542.964844 C 979.152344 540.523438 971.789062 534.441406 965.039062 529.167969 C 955.023438 520.273438 939.648438 512.425781 926.675781 509.585938 L 917.875 507.664062 C 916.289062 507.316406 915.140625 505.9375 915.0625 504.316406 C 914.71875 496.957031 910.058594 480.296875 908.636719 475.367188 C 908.101562 473.488281 909.136719 471.554688 911 470.96875 C 912.941406 470.359375 916.324219 468.898438 917.246094 465.875 C 917.816406 464 917.503906 462.136719 917.128906 461.921875 C 916.910156 461.785156 915.730469 461.832031 914.15625 463.113281 C 913.132812 463.945312 911.742188 464.152344 910.519531 463.644531 C 909.308594 463.136719 908.464844 462.007812 908.34375 460.703125 C 908.164062 458.953125 908.179688 457.535156 908.371094 456.453125 C 900.226562 451.875 901.777344 445.164062 902.8125 440.714844 C 903.242188 438.84375 903.683594 436.917969 903.175781 436.101562 C 902.867188 435.632812 902.082031 435.355469 901.433594 435.203125 C 900.613281 435.648438 899.917969 435.972656 899.261719 436.28125 C 898.265625 436.753906 897.488281 437.125 896.480469 437.800781 C 895.222656 438.664062 893.714844 440.488281 892.121094 442.414062 C 889.269531 445.859375 886.042969 449.765625 882.003906 451.050781 C 882.015625 451.480469 882.253906 451.816406 882.832031 452.523438 C 883.082031 452.835938 883.332031 453.148438 883.550781 453.480469 C 884.238281 454.492188 884.316406 455.835938 883.757812 456.96875 C 883.253906 458.003906 882.488281 459.929688 881.679688 461.972656 C 880.917969 463.914062 880.054688 466.105469 879.234375 467.96875 C 878.585938 469.445312 879.171875 471.179688 880.570312 471.929688 C 882.332031 472.859375 884.289062 473.625 886.378906 474.1875 C 887.335938 474.4375 888.121094 475.058594 888.597656 475.90625 C 890.21875 478.863281 895.253906 489.242188 891.882812 498.75 C 891.277344 500.449219 889.492188 501.449219 887.730469 501.054688 Z M 941.757812 560.265625 C 914.125 560.269531 886.601562 548.605469 882.015625 546.570312 C 871.582031 541.941406 860.730469 526.640625 853.464844 514.613281 C 849.480469 508.015625 839.359375 489.570312 840.167969 487.101562 C 840.464844 486.179688 841.464844 485.601562 842.40625 485.816406 C 842.429688 485.820312 842.449219 485.820312 842.464844 485.832031 L 888.378906 497.324219 C 891.078125 489.421875 886.800781 480.511719 885.328125 477.8125 C 882.988281 477.179688 880.796875 476.320312 878.796875 475.265625 C 875.65625 473.601562 874.332031 469.730469 875.769531 466.449219 C 876.5625 464.648438 877.414062 462.492188 878.164062 460.585938 C 879.003906 458.453125 879.742188 456.605469 880.296875 455.425781 C 880.167969 455.25 880.03125 455.078125 879.890625 454.90625 C 879.117188 453.957031 878.0625 452.660156 878.242188 450.570312 C 878.355469 449.136719 879.371094 447.894531 880.734375 447.484375 C 883.757812 446.589844 886.65625 443.09375 889.210938 440 C 890.976562 437.867188 892.652344 435.84375 894.347656 434.683594 C 895.601562 433.824219 896.59375 433.355469 897.65625 432.863281 C 898.257812 432.578125 898.90625 432.277344 899.671875 431.863281 C 900.441406 431.441406 901.3125 431.316406 902.125 431.476562 C 904.144531 431.917969 905.539062 432.769531 906.359375 434.082031 C 907.722656 436.226562 907.125 438.816406 906.496094 441.5625 C 905.488281 445.90625 904.546875 450.003906 910.300781 453.199219 C 911.675781 453.964844 912.417969 455.546875 912.113281 457.039062 C 912.011719 457.503906 911.929688 458.382812 912.070312 459.945312 C 914.53125 458.0625 917.175781 457.570312 919.035156 458.652344 C 921.757812 460.25 921.621094 464.507812 920.863281 466.976562 C 919.472656 471.546875 915.003906 473.644531 912.328125 474.515625 C 914.203125 481.039062 918.4375 496.472656 918.828125 504.003906 L 927.488281 505.894531 C 941.03125 508.863281 957.09375 517.054688 967.457031 526.269531 C 985.695312 540.5 985.792969 542.066406 985.859375 543.007812 C 985.894531 543.542969 985.660156 544.179688 985.289062 544.566406 C 973.660156 556.394531 957.683594 560.265625 941.757812 560.265625 " fill-opacity="1" fill-rule="nonzero"/><path fill="#000000" d="M 893.910156 479.445312 C 891.703125 479.445312 889.125 479.121094 886.425781 478.109375 C 885.453125 477.734375 884.957031 476.652344 885.328125 475.671875 C 885.691406 474.6875 886.785156 474.199219 887.761719 474.5625 C 894.0625 476.9375 899.542969 474.761719 899.601562 474.75 C 900.570312 474.351562 901.667969 474.820312 902.066406 475.789062 C 902.457031 476.75 901.992188 477.855469 901.019531 478.246094 C 900.839844 478.320312 897.984375 479.445312 893.910156 479.445312 " fill-opacity="1" fill-rule="nonzero"/><path fill="#000000" d="M 933.210938 436.746094 C 933.210938 436.746094 936.171875 418.757812 950.4375 423.628906 C 964.699219 428.492188 950.871094 443.277344 940.089844 444.421875 C 929.3125 445.554688 933.210938 436.746094 933.210938 436.746094 " fill-opacity="1" fill-rule="nonzero"/><path fill="#f5f5f5" d="M 690.199219 419.761719 C 690.199219 419.761719 685.324219 409.433594 684.515625 404.507812 C 682.496094 392.191406 678.179688 376.777344 669.1875 366.484375 C 665.988281 362.816406 662 359.976562 654.464844 359.242188 C 644.203125 358.238281 630.105469 349.191406 628.140625 358.683594 C 626.441406 366.882812 639.949219 365.636719 644.945312 371.5625 C 647.546875 374.648438 658.847656 387.296875 651.195312 393.667969 C 645.722656 398.222656 639.175781 396.242188 637.515625 399.300781 C 636.589844 401.011719 637.035156 403.054688 638.296875 404.539062 C 642.546875 409.53125 655.449219 404.679688 655.449219 404.679688 C 658.0625 403.585938 661.199219 406.808594 662.703125 409.210938 L 673.3125 426.175781 L 690.199219 419.761719 " fill-opacity="1" fill-rule="nonzero"/><path fill="#000000" d="M 656.570312 402.546875 C 659.816406 402.546875 662.855469 405.898438 664.304688 408.210938 L 674.089844 423.855469 L 687.636719 418.714844 C 686.175781 415.445312 683.289062 408.6875 682.65625 404.816406 C 680.804688 393.558594 676.722656 377.988281 667.765625 367.722656 C 665.148438 364.722656 661.703125 361.851562 654.28125 361.121094 C 650.835938 360.785156 647.105469 359.632812 643.496094 358.519531 C 638.621094 357.011719 633.582031 355.449219 631.355469 356.761719 C 630.925781 357.019531 630.304688 357.539062 629.992188 359.066406 C 629.375 362.019531 631.496094 363.089844 636.839844 364.984375 C 640.210938 366.183594 644.027344 367.539062 646.390625 370.34375 L 646.738281 370.753906 C 649.347656 373.820312 656.269531 381.960938 655.664062 388.949219 C 655.453125 391.417969 654.355469 393.496094 652.402344 395.121094 C 649.105469 397.863281 645.445312 398.519531 642.773438 398.988281 C 641.105469 399.289062 639.523438 399.574219 639.179688 400.199219 C 638.582031 401.308594 639.074219 402.539062 639.738281 403.3125 C 642.507812 406.5625 651.757812 404.046875 654.78125 402.914062 C 655.378906 402.664062 655.980469 402.546875 656.570312 402.546875 Z M 672.53125 428.496094 L 661.097656 410.214844 C 659.554688 407.742188 657.25 405.980469 656.179688 406.429688 C 654.664062 406.996094 641.828125 411.597656 636.855469 405.765625 C 635.007812 403.59375 634.613281 400.699219 635.855469 398.398438 C 637.066406 396.167969 639.515625 395.730469 642.113281 395.265625 C 644.621094 394.824219 647.457031 394.316406 649.980469 392.214844 C 651.148438 391.246094 651.777344 390.070312 651.902344 388.621094 C 652.367188 383.207031 645.964844 375.679688 643.855469 373.203125 L 643.496094 372.78125 C 641.792969 370.761719 638.632812 369.640625 635.574219 368.550781 C 630.839844 366.871094 624.945312 364.773438 626.285156 358.296875 C 626.746094 356.082031 627.804688 354.46875 629.4375 353.507812 C 633.105469 351.34375 638.695312 353.070312 644.621094 354.902344 C 648.046875 355.960938 651.589844 357.0625 654.652344 357.355469 C 663.402344 358.214844 667.632812 361.820312 670.613281 365.242188 C 680.15625 376.167969 684.453125 392.460938 686.382812 404.203125 C 687.140625 408.8125 691.855469 418.855469 691.910156 418.953125 L 692.777344 420.804688 L 672.53125 428.496094 " fill-opacity="1" fill-rule="nonzero"/><path fill="#f5f5f5" d="M 956.476562 691.359375 C 956.476562 691.359375 939.699219 680.214844 930.679688 678.242188 C 925.179688 677.042969 918.324219 680.136719 914.808594 682.488281 C 912.976562 683.707031 913.152344 686.4375 915.125 687.410156 C 918.351562 689 923.167969 689.921875 925.53125 691.347656 C 931.25 694.78125 941.359375 719.472656 969.988281 701.277344 L 966.242188 687.632812 L 956.476562 691.359375 " fill-opacity="1" fill-rule="nonzero"/><path fill="#000000" d="M 928.085938 679.871094 C 924.003906 679.871094 919.113281 681.878906 915.847656 684.0625 C 915.433594 684.339844 915.410156 684.753906 915.425781 684.921875 C 915.433594 685.085938 915.511719 685.496094 915.964844 685.710938 C 917.378906 686.414062 919.207031 687 920.976562 687.5625 C 923.085938 688.234375 925.082031 688.867188 926.507812 689.726562 C 927.910156 690.570312 929.292969 692.183594 931.035156 694.21875 C 937.453125 701.703125 947.089844 712.929688 967.789062 700.414062 L 964.96875 690.140625 L 957.148438 693.125 C 956.574219 693.347656 955.941406 693.273438 955.425781 692.933594 C 955.261719 692.824219 938.835938 681.964844 930.265625 680.09375 C 929.582031 679.945312 928.847656 679.871094 928.085938 679.871094 Z M 950.882812 709.808594 C 939.429688 709.808594 932.539062 701.769531 928.171875 696.679688 C 926.769531 695.042969 925.441406 693.496094 924.558594 692.96875 C 923.511719 692.339844 921.726562 691.765625 919.828125 691.160156 C 917.921875 690.558594 915.957031 689.929688 914.285156 689.105469 C 912.746094 688.351562 911.765625 686.875 911.652344 685.171875 C 911.539062 683.457031 912.332031 681.867188 913.753906 680.917969 C 918.066406 678.03125 925.195312 675.117188 931.078125 676.398438 C 939.289062 678.191406 953.160156 686.953125 956.703125 689.25 L 965.566406 685.867188 C 966.0625 685.679688 966.621094 685.707031 967.089844 685.945312 C 967.570312 686.1875 967.917969 686.617188 968.058594 687.132812 L 971.8125 700.773438 C 972.027344 701.578125 971.699219 702.429688 971 702.875 C 963.066406 707.914062 956.433594 709.804688 950.882812 709.808594 " fill-opacity="1" fill-rule="nonzero"/><path fill="#f5f5f5" d="M 665.523438 420.054688 L 688.972656 410.296875 C 688.972656 410.296875 744.488281 448.578125 767.792969 459.03125 C 792.269531 470.007812 850.914062 486.175781 867.683594 490.703125 C 870.289062 491.40625 872.097656 493.71875 872.195312 496.402344 C 872.535156 505.980469 875.78125 528.113281 897.988281 534.808594 C 927.648438 543.761719 945.964844 527.964844 952.988281 519.972656 C 955.039062 517.632812 958.503906 517.21875 961.0625 518.988281 C 979.621094 531.828125 1045.941406 580.640625 1051.855469 626.5 C 1058.167969 682.433594 966.949219 709.246094 966.949219 709.246094 L 960.296875 685.46875 C 960.296875 685.46875 989.574219 667.582031 986.164062 638.066406 C 980.433594 616.25 971.113281 610.5 964.417969 608.300781 C 960.863281 607.128906 957.589844 609.152344 957.078125 612.867188 C 954.230469 633.46875 955.179688 648.390625 956.320312 656.796875 C 956.945312 661.4375 953.835938 665.765625 949.253906 666.707031 C 888.199219 679.199219 832.316406 658.8125 808.902344 647.285156 C 800.5625 643.171875 795.898438 634.113281 797.332031 624.929688 C 801.117188 600.707031 808.894531 572.035156 813.222656 557.023438 C 814.730469 551.78125 811.199219 546.421875 805.785156 545.78125 C 793.988281 544.394531 781.632812 541.574219 769.121094 536.71875 C 689.625 505.84375 665.523438 420.054688 665.523438 420.054688 " fill-opacity="1" fill-rule="nonzero"/><path fill="#000000" d="M 962.488281 686.292969 L 968.242188 706.855469 C 980.976562 702.6875 1055.546875 676.097656 1049.976562 626.710938 C 1044.199219 581.96875 979.632812 534.140625 959.988281 520.542969 C 958.214844 519.316406 955.816406 519.609375 954.410156 521.21875 C 947.609375 528.960938 928.4375 545.976562 897.445312 536.621094 C 873.988281 529.546875 870.652344 506.1875 870.300781 496.472656 C 870.242188 494.601562 868.992188 493.011719 867.199219 492.527344 C 849.898438 487.855469 791.542969 471.753906 767.019531 460.757812 C 745.117188 450.941406 696.082031 417.476562 688.746094 412.441406 L 667.832031 421.140625 C 671.640625 432.972656 698.070312 507.097656 769.808594 534.953125 C 781.292969 539.417969 793.472656 542.429688 806.011719 543.910156 C 809.128906 544.273438 811.917969 545.988281 813.65625 548.613281 C 815.414062 551.25 815.914062 554.507812 815.042969 557.546875 C 810.742188 572.464844 802.964844 601.097656 799.195312 625.21875 C 797.878906 633.652344 802.117188 641.835938 809.734375 645.585938 C 825.800781 653.496094 883.316406 678.277344 948.871094 664.851562 C 952.484375 664.117188 954.9375 660.6875 954.445312 657.054688 C 953.226562 648.097656 952.371094 633.109375 955.203125 612.609375 C 955.527344 610.257812 956.734375 608.3125 958.59375 607.152344 C 960.464844 605.992188 962.742188 605.757812 965.015625 606.503906 C 975.921875 610.089844 983.441406 620.253906 987.992188 637.585938 L 988.046875 637.847656 C 991.179688 665.070312 968.171875 682.445312 962.488281 686.292969 Z M 965.644531 711.597656 L 958.085938 684.601562 L 959.304688 683.851562 C 959.585938 683.679688 987.425781 666.277344 984.304688 638.414062 C 978.703125 617.226562 969.9375 612.105469 963.835938 610.097656 C 962.644531 609.710938 961.496094 609.800781 960.59375 610.363281 C 959.699219 610.921875 959.117188 611.902344 958.949219 613.125 C 956.179688 633.203125 957.003906 647.820312 958.195312 656.546875 C 958.949219 662.144531 955.1875 667.417969 949.632812 668.554688 C 882.894531 682.210938 824.402344 657.023438 808.0625 648.976562 C 798.960938 644.496094 793.890625 634.710938 795.464844 624.640625 C 799.257812 600.300781 807.078125 571.503906 811.410156 556.5 C 811.976562 554.53125 811.644531 552.414062 810.515625 550.703125 C 809.386719 549.011719 807.585938 547.902344 805.5625 547.660156 C 792.707031 546.140625 780.214844 543.058594 768.433594 538.484375 C 726.886719 522.347656 700.625 491.148438 685.910156 467.816406 C 669.984375 442.574219 663.761719 420.785156 663.699219 420.566406 L 663.246094 418.953125 L 689.199219 408.15625 L 690.046875 408.746094 C 690.597656 409.125 745.675781 447.046875 768.574219 457.308594 C 792.835938 468.195312 850.953125 484.222656 868.183594 488.878906 C 871.582031 489.800781 873.957031 492.792969 874.085938 496.335938 C 874.398438 505.242188 877.417969 526.636719 898.527344 533 C 927.425781 541.726562 945.246094 525.921875 951.5625 518.726562 C 954.25 515.675781 958.792969 515.117188 962.136719 517.433594 C 982.109375 531.253906 1047.75 579.933594 1053.722656 626.261719 C 1056.394531 649.933594 1042.238281 672.121094 1012.773438 690.449219 C 990.785156 704.121094 967.710938 710.996094 967.484375 711.0625 L 965.644531 711.597656 " fill-opacity="1" fill-rule="nonzero"/><path fill="#000000" d="M 880.289062 646.5 C 880.050781 646.5 879.8125 646.457031 879.578125 646.367188 C 830.460938 626.230469 823.273438 570.796875 823.203125 570.234375 C 823.078125 569.199219 823.820312 568.257812 824.855469 568.136719 C 825.882812 568.023438 826.832031 568.75 826.953125 569.785156 C 827.027344 570.320312 833.984375 623.582031 881.007812 642.863281 C 881.96875 643.261719 882.4375 644.367188 882.042969 645.328125 C 881.734375 646.0625 881.035156 646.5 880.289062 646.5 " fill-opacity="1" fill-rule="nonzero"/><path fill="#f5f5f5" d="M 123.910156 1034.003906 L 83.9375 1034.003906 L 98.332031 1005.847656 L 130.117188 1008.628906 L 123.910156 1034.003906 " fill-opacity="1" fill-rule="nonzero"/><path fill="#000000" d="M 87.027344 1032.113281 L 122.429688 1032.113281 L 127.753906 1010.320312 L 99.433594 1007.839844 Z M 123.910156 1035.894531 L 83.941406 1035.894531 C 83.28125 1035.894531 82.671875 1035.550781 82.328125 1034.988281 C 81.984375 1034.429688 81.957031 1033.730469 82.257812 1033.144531 L 96.648438 1004.988281 C 96.996094 1004.300781 97.730469 1003.894531 98.496094 1003.960938 L 130.28125 1006.75 C 130.828125 1006.796875 131.328125 1007.082031 131.652344 1007.53125 C 131.972656 1007.980469 132.082031 1008.546875 131.949219 1009.078125 L 125.75 1034.453125 C 125.542969 1035.292969 124.785156 1035.894531 123.910156 1035.894531 " fill-opacity="1" fill-rule="nonzero"/><path fill="#f5f5f5" d="M 94.636719 1031.683594 L 112.53125 1017.632812 C 114.675781 1015.953125 115.320312 1012.964844 114.019531 1010.726562 C 110.375 1004.546875 100.476562 981.15625 88.269531 972.96875 C 84.933594 970.730469 80.394531 971.5625 77.949219 974.824219 L 23.175781 1048.0625 C 20.65625 1051.425781 21.773438 1056.25 25.527344 1058.007812 C 30.027344 1060.109375 37.226562 1061.15625 47.835938 1056.570312 C 65.011719 1049.140625 84.6875 1038.375 90.847656 1034.949219 C 91.929688 1034.34375 92.894531 1033.558594 93.695312 1032.613281 C 93.984375 1032.277344 94.289062 1031.953125 94.636719 1031.683594 " fill-opacity="1" fill-rule="nonzero"/><path fill="#000000" d="M 84.121094 973.601562 C 82.363281 973.601562 80.613281 974.417969 79.464844 975.960938 L 24.691406 1049.1875 C 23.808594 1050.371094 23.5 1051.859375 23.859375 1053.277344 C 24.195312 1054.617188 25.09375 1055.71875 26.328125 1056.296875 C 31.792969 1058.851562 38.96875 1058.34375 47.085938 1054.832031 C 64.308594 1047.390625 84.230469 1036.46875 89.925781 1033.296875 C 90.816406 1032.800781 91.597656 1032.164062 92.257812 1031.390625 C 92.527344 1031.070312 92.945312 1030.609375 93.46875 1030.195312 L 111.367188 1016.144531 C 112.761719 1015.054688 113.207031 1013.089844 112.386719 1011.679688 C 111.632812 1010.402344 110.664062 1008.496094 109.433594 1006.078125 C 104.625 996.625 96.578125 980.816406 87.21875 974.539062 C 86.269531 973.910156 85.195312 973.601562 84.121094 973.601562 Z M 34.0625 1061.675781 C 30.082031 1061.675781 26.992188 1060.78125 24.726562 1059.722656 C 22.457031 1058.65625 20.804688 1056.644531 20.191406 1054.195312 C 19.554688 1051.671875 20.09375 1049.023438 21.664062 1046.929688 L 76.4375 973.691406 C 79.488281 969.609375 85.152344 968.601562 89.324219 971.398438 C 99.5 978.226562 107.828125 994.589844 112.800781 1004.359375 C 113.953125 1006.625 114.949219 1008.578125 115.648438 1009.761719 C 117.433594 1012.832031 116.59375 1016.855469 113.699219 1019.117188 L 95.804688 1033.171875 C 95.605469 1033.324219 95.398438 1033.535156 95.136719 1033.84375 C 94.179688 1034.957031 93.046875 1035.886719 91.765625 1036.601562 C 86.03125 1039.792969 65.972656 1050.789062 48.589844 1058.304688 C 42.835938 1060.792969 38.011719 1061.675781 34.0625 1061.675781 " fill-opacity="1" fill-rule="nonzero"/><path fill="#f5f5f5" d="M 22.238281 1053.613281 C 22.214844 1053.640625 22.179688 1053.652344 22.148438 1053.640625 C 21.617188 1053.449219 21.109375 1053.242188 20.640625 1053.023438 C 16.886719 1051.265625 15.769531 1046.4375 18.285156 1043.074219 L 73.0625 969.84375 C 75.503906 966.574219 80.046875 965.75 83.378906 967.988281 C 84.003906 968.402344 84.613281 968.839844 85.21875 969.285156 C 85.25 969.308594 85.253906 969.359375 85.230469 969.394531 L 22.238281 1053.613281 " fill-opacity="1" fill-rule="nonzero"/><path fill="#000000" d="M 79.234375 968.613281 C 77.476562 968.613281 75.722656 969.4375 74.578125 970.96875 L 19.800781 1044.207031 C 18.917969 1045.386719 18.613281 1046.875 18.96875 1048.289062 C 19.304688 1049.632812 20.207031 1050.734375 21.441406 1051.308594 C 21.480469 1051.328125 21.519531 1051.347656 21.558594 1051.363281 L 82.605469 969.746094 C 82.515625 969.679688 82.421875 969.617188 82.328125 969.554688 C 81.382812 968.921875 80.304688 968.613281 79.234375 968.613281 Z M 22.136719 1055.527344 C 21.921875 1055.527344 21.710938 1055.492188 21.507812 1055.417969 C 20.917969 1055.207031 20.359375 1054.980469 19.839844 1054.734375 C 17.566406 1053.675781 15.914062 1051.660156 15.300781 1049.207031 C 14.667969 1046.683594 15.207031 1044.035156 16.773438 1041.941406 L 71.550781 968.710938 C 74.601562 964.621094 80.261719 963.617188 84.433594 966.414062 C 85.078125 966.847656 85.710938 967.300781 86.339844 967.765625 C 87.179688 968.378906 87.371094 969.667969 86.757812 970.507812 L 23.753906 1054.742188 C 23.386719 1055.238281 22.757812 1055.527344 22.136719 1055.527344 " fill-opacity="1" fill-rule="nonzero"/><path fill="#000000" d="M 76.589844 1032.363281 C 75.621094 1032.363281 74.792969 1031.617188 74.710938 1030.636719 L 73.453125 1016.296875 C 73.363281 1015.257812 74.132812 1014.34375 75.171875 1014.25 C 76.210938 1014.164062 77.128906 1014.925781 77.222656 1015.964844 L 78.476562 1030.308594 C 78.566406 1031.34375 77.796875 1032.261719 76.757812 1032.351562 C 76.699219 1032.355469 76.644531 1032.363281 76.589844 1032.363281 " fill-opacity="1" fill-rule="nonzero"/><path fill="#000000" d="M 66.324219 1037.871094 C 65.351562 1037.871094 64.527344 1037.128906 64.441406 1036.144531 L 63.1875 1021.808594 C 63.09375 1020.765625 63.863281 1019.847656 64.90625 1019.757812 C 65.941406 1019.675781 66.863281 1020.4375 66.953125 1021.476562 L 68.207031 1035.8125 C 68.300781 1036.855469 67.53125 1037.773438 66.488281 1037.863281 C 66.433594 1037.871094 66.378906 1037.871094 66.324219 1037.871094 " fill-opacity="1" fill-rule="nonzero"/><path fill="#f5f5f5" d="M 375.070312 1009.257812 L 344.816406 1008.816406 C 342.671875 1008.789062 340.71875 1010.117188 339.875 1012.195312 C 337.09375 1019.027344 331.398438 1035.011719 331.914062 1050.257812 C 332.054688 1054.425781 335.292969 1057.734375 339.25 1057.792969 L 428.015625 1059.0625 C 432.09375 1059.125 435.257812 1055.242188 434.5 1051.015625 C 433.585938 1045.957031 430.308594 1039.269531 420.664062 1033.160156 C 405.042969 1023.273438 385.375 1013.335938 379.175781 1010.253906 C 377.890625 1009.617188 376.492188 1009.273438 375.070312 1009.257812 " fill-opacity="1" fill-rule="nonzero"/><path fill="#000000" d="M 344.746094 1010.707031 C 343.390625 1010.707031 342.171875 1011.570312 341.625 1012.90625 C 339.101562 1019.101562 333.292969 1035.136719 333.804688 1050.195312 C 333.910156 1053.351562 336.3125 1055.859375 339.277344 1055.902344 L 428.042969 1057.171875 C 429.378906 1057.183594 430.632812 1056.601562 431.523438 1055.546875 C 432.5 1054.398438 432.910156 1052.867188 432.636719 1051.347656 C 431.527344 1045.167969 427.039062 1039.4375 419.648438 1034.761719 C 404.011719 1024.863281 384.074219 1014.796875 378.332031 1011.949219 C 377.296875 1011.429688 376.183594 1011.164062 375.042969 1011.140625 L 344.789062 1010.707031 C 344.773438 1010.707031 344.757812 1010.707031 344.746094 1010.707031 Z M 428.105469 1060.957031 C 428.066406 1060.957031 428.023438 1060.957031 427.992188 1060.957031 L 339.222656 1059.683594 C 334.242188 1059.609375 330.199219 1055.503906 330.027344 1050.328125 C 329.492188 1034.53125 335.511719 1017.902344 338.125 1011.484375 C 339.265625 1008.675781 341.921875 1006.945312 344.847656 1006.929688 L 375.09375 1007.367188 L 375.097656 1007.367188 C 376.808594 1007.390625 378.464844 1007.792969 380.011719 1008.5625 C 385.796875 1011.429688 405.886719 1021.574219 421.675781 1031.566406 C 432.171875 1038.207031 435.449219 1045.625 436.363281 1050.683594 C 436.828125 1053.3125 436.117188 1055.980469 434.410156 1057.996094 C 432.808594 1059.882812 430.515625 1060.957031 428.105469 1060.957031 " fill-opacity="1" fill-rule="nonzero"/><path fill="#f5f5f5" d="M 434.046875 1049.3125 C 434.082031 1049.3125 434.117188 1049.335938 434.125 1049.371094 C 434.277344 1049.933594 434.402344 1050.480469 434.5 1051.015625 C 435.257812 1055.242188 432.09375 1059.125 428.015625 1059.0625 L 339.25 1057.792969 C 335.292969 1057.734375 332.054688 1054.425781 331.914062 1050.257812 C 331.886719 1049.484375 331.886719 1048.703125 331.890625 1047.925781 C 331.890625 1047.878906 331.925781 1047.847656 331.96875 1047.851562 L 434.046875 1049.3125 " fill-opacity="1" fill-rule="nonzero"/><path fill="#000000" d="M 333.792969 1049.761719 C 333.796875 1049.914062 333.796875 1050.054688 333.804688 1050.195312 C 333.910156 1053.351562 336.3125 1055.859375 339.277344 1055.902344 L 428.042969 1057.171875 C 429.378906 1057.183594 430.632812 1056.601562 431.523438 1055.546875 C 432.5 1054.398438 432.910156 1052.867188 432.636719 1051.347656 C 432.625 1051.296875 432.613281 1051.238281 432.609375 1051.183594 Z M 428.105469 1060.957031 C 428.066406 1060.957031 428.023438 1060.957031 427.992188 1060.957031 L 339.222656 1059.683594 C 334.242188 1059.609375 330.199219 1055.503906 330.027344 1050.328125 C 329.996094 1049.523438 329.996094 1048.714844 330 1047.914062 C 330.003906 1047.402344 330.238281 1046.855469 330.609375 1046.503906 C 330.972656 1046.152344 331.507812 1045.910156 332.023438 1045.960938 L 434.078125 1047.421875 C 434.925781 1047.433594 435.730469 1048.0625 435.949219 1048.882812 C 436.117188 1049.496094 436.253906 1050.097656 436.363281 1050.683594 C 436.828125 1053.3125 436.117188 1055.980469 434.410156 1057.996094 C 432.808594 1059.882812 430.515625 1060.957031 428.105469 1060.957031 " fill-opacity="1" fill-rule="nonzero"/><path fill="#000000" d="M 374.347656 1029.503906 C 373.84375 1029.503906 373.339844 1029.304688 372.96875 1028.914062 C 372.253906 1028.148438 372.292969 1026.953125 373.054688 1026.234375 L 381.929688 1017.90625 C 382.6875 1017.195312 383.886719 1017.234375 384.597656 1017.992188 C 385.316406 1018.753906 385.277344 1019.949219 384.515625 1020.660156 L 375.640625 1028.992188 C 375.277344 1029.339844 374.8125 1029.503906 374.347656 1029.503906 " fill-opacity="1" fill-rule="nonzero"/><path fill="#000000" d="M 384.527344 1034.765625 C 384.035156 1034.765625 383.539062 1034.570312 383.171875 1034.191406 C 382.441406 1033.445312 382.460938 1032.242188 383.207031 1031.519531 L 392.105469 1022.867188 C 392.851562 1022.144531 394.046875 1022.152344 394.777344 1022.90625 C 395.507812 1023.652344 395.488281 1024.847656 394.742188 1025.578125 L 385.84375 1034.226562 C 385.476562 1034.582031 385.003906 1034.765625 384.527344 1034.765625 " fill-opacity="1" fill-rule="nonzero"/><path fill="#014bb1" d="M 228.804688 858.417969 C 228.8125 858.40625 228.804688 858.410156 228.816406 858.398438 C 229.660156 857.761719 293.589844 811.453125 314.261719 817.265625 C 349.597656 827.203125 342.714844 932.257812 341.984375 960.042969 C 341.273438 987.097656 225.644531 903.507812 221.6875 896.386719 C 217.777344 889.339844 228.570312 859.078125 228.804688 858.417969 " fill-opacity="1" fill-rule="nonzero"/><path fill="#014bb1" d="M 340.8125 953.046875 C 340.929688 953.148438 341.046875 953.25 341.160156 953.351562 C 363.316406 973.132812 372.808594 988.957031 371.226562 1014.273438 C 369.679688 1039.03125 334.101562 1065.292969 220.121094 1052.40625 C 214.621094 1052.046875 209.121094 1051.6875 203.621094 1051.328125 L 110.921875 1049.878906 L 110.921875 983.417969 C 110.921875 983.417969 155.703125 979.597656 214.417969 982.386719 C 216.777344 982.496094 217.199219 979.074219 214.878906 978.636719 C 185.8125 973.128906 148.394531 964.570312 136.726562 954.777344 C 112.195312 934.203125 114.800781 902.9375 120.109375 880.667969 C 135.609375 815.660156 232.378906 883.527344 233.050781 883.691406 C 233.058594 883.691406 233.050781 883.6875 233.054688 883.691406 C 233.246094 883.808594 246.152344 891.292969 263.183594 901.582031 L 340.8125 953.046875 " fill-opacity="1" fill-rule="nonzero"/><path fill="#caddff" d="M 287.761719 996.394531 C 287.433594 996.394531 287.09375 996.308594 286.789062 996.125 C 286.582031 996 265.316406 983.566406 214.601562 982.378906 C 213.558594 982.359375 212.730469 981.492188 212.757812 980.445312 C 212.78125 979.421875 213.621094 978.601562 214.648438 978.601562 C 214.660156 978.601562 214.675781 978.601562 214.691406 978.601562 C 266.570312 979.8125 287.863281 992.355469 288.746094 992.886719 C 289.636719 993.429688 289.921875 994.589844 289.382812 995.484375 C 289.027344 996.070312 288.402344 996.394531 287.761719 996.394531 " fill-opacity="1" fill-rule="nonzero"/><path fill="#caddff" d="M 334.472656 949.789062 C 334.074219 949.789062 333.667969 949.664062 333.328125 949.402344 C 317.121094 937.011719 292.660156 919.070312 267.460938 906.375 C 266.527344 905.90625 266.152344 904.773438 266.621094 903.839844 C 267.09375 902.90625 268.230469 902.53125 269.164062 903 C 294.644531 915.835938 319.296875 933.914062 335.625 946.402344 C 336.453125 947.03125 336.613281 948.214844 335.976562 949.046875 C 335.605469 949.53125 335.042969 949.789062 334.472656 949.789062 " fill-opacity="1" fill-rule="nonzero"/><path fill="#f5f5f5" d="M 218.082031 637.246094 C 229.355469 626.296875 279.257812 589.148438 369.75 603.554688 C 371.132812 603.769531 372.542969 603.558594 373.78125 602.902344 C 380.003906 599.636719 400.453125 589.761719 412.40625 594.449219 C 426.238281 599.875 455.902344 616.992188 411.660156 617.625 C 410.613281 617.640625 410.242188 619.023438 411.148438 619.558594 C 414.660156 621.632812 419.472656 624.878906 418.628906 626.699219 C 416.660156 630.957031 393.660156 627.519531 380.117188 625.207031 C 366.570312 622.902344 361.328125 620.625 327.210938 631.523438 C 306.199219 638.234375 277.949219 662.53125 266.609375 672.175781 C 266.609375 672.175781 216.855469 638.4375 218.082031 637.246094 " fill-opacity="1" fill-rule="nonzero"/><path fill="#000000" d="M 220.699219 637.382812 C 226.136719 642.039062 250.375 658.867188 266.480469 669.804688 C 278.472656 659.597656 305.914062 636.339844 326.632812 629.71875 C 358.695312 619.480469 365.804688 620.746094 377.585938 622.84375 C 378.5 623.011719 379.445312 623.175781 380.433594 623.347656 C 409.195312 628.242188 415.359375 626.800781 416.671875 626.054688 C 416.226562 625.445312 414.78125 623.898438 410.183594 621.1875 C 409.046875 620.511719 408.503906 619.195312 408.847656 617.914062 C 409.183594 616.628906 410.304688 615.75 411.632812 615.734375 C 431.339844 615.453125 432.984375 611.882812 433.117188 611.171875 C 433.695312 607.960938 423.5 600.832031 411.71875 596.210938 C 400.488281 591.808594 380.511719 601.503906 374.660156 604.578125 C 373.066406 605.421875 371.261719 605.710938 369.453125 605.421875 C 278.203125 590.894531 230.207031 628.8125 220.699219 637.382812 Z M 266.738281 674.554688 L 265.546875 673.742188 C 216.433594 640.433594 216.273438 638.582031 216.175781 637.476562 L 216.097656 636.585938 L 216.765625 635.886719 C 222.070312 630.730469 271.472656 585.992188 370.046875 601.683594 C 371.046875 601.84375 372.035156 601.683594 372.902344 601.230469 C 380.863281 597.046875 400.722656 587.835938 413.101562 592.691406 C 414.136719 593.101562 438.484375 602.757812 436.832031 611.851562 C 435.980469 616.539062 428.882812 618.980469 414.558594 619.445312 C 419.648438 622.769531 421.390625 625.234375 420.347656 627.492188 C 418.902344 630.617188 412.988281 632.730469 379.800781 627.070312 C 378.796875 626.898438 377.84375 626.734375 376.921875 626.570312 C 365.335938 624.5 358.953125 623.363281 327.785156 633.324219 C 307.621094 639.761719 280.304688 663.003906 268.640625 672.929688 L 266.738281 674.554688 " fill-opacity="1" fill-rule="nonzero"/><path fill="#f5f5f5" d="M 349.65625 652.859375 C 349.65625 652.859375 390.207031 674.574219 408.746094 672.714844 C 434.828125 670.089844 463.675781 590.59375 465.683594 585.128906 C 467.699219 579.660156 473.332031 549.386719 481.382812 540.554688 C 487.488281 533.859375 493.214844 520.390625 495.628906 514.269531 C 496.597656 511.816406 499.292969 510.367188 501.796875 511.179688 C 504 511.902344 505.644531 513.988281 503.429688 519.453125 C 500.875 525.773438 497.804688 533.527344 495.671875 538.945312 C 495 540.652344 496.863281 542.199219 498.316406 541.152344 C 501.699219 538.710938 505.964844 536.464844 508.75 538.03125 C 513.980469 540.976562 516.800781 560.738281 508.34375 574.617188 C 499.894531 588.492188 490.613281 585.230469 487.792969 591.960938 C 484.976562 598.683594 461.597656 686.070312 451.996094 701.183594 C 438.1875 722.917969 348.9375 725.382812 334.449219 724.960938 C 319.960938 724.542969 349.65625 652.859375 349.65625 652.859375 " fill-opacity="1" fill-rule="nonzero"/><path fill="#000000" d="M 350.613281 655.492188 C 341.230469 678.519531 328.78125 715.464844 333.246094 722.359375 C 333.566406 722.855469 333.921875 723.058594 334.503906 723.078125 C 356.441406 723.703125 437.9375 719.785156 450.402344 700.167969 C 457.085938 689.648438 470.945312 642.128906 479.222656 613.742188 C 482.820312 601.410156 485.191406 593.269531 486.050781 591.230469 C 487.53125 587.691406 490.449219 586.378906 493.535156 584.996094 C 497.382812 583.269531 502.167969 581.125 506.734375 573.632812 C 512.246094 564.578125 512.707031 552.613281 510.804688 545.332031 C 509.90625 541.898438 508.675781 540.15625 507.820312 539.679688 C 506.304688 538.824219 503.25 539.921875 499.421875 542.6875 C 498.105469 543.636719 496.363281 543.605469 495.082031 542.617188 C 493.757812 541.585938 493.289062 539.832031 493.910156 538.253906 C 496.050781 532.824219 499.132812 525.035156 501.683594 518.742188 C 502.878906 515.785156 502.640625 514.4375 502.382812 513.894531 C 502.257812 513.621094 502 513.242188 501.210938 512.980469 C 499.722656 512.5 498.015625 513.382812 497.390625 514.960938 C 494.574219 522.101562 488.933594 535.078125 482.777344 541.832031 C 477.054688 548.105469 472.4375 566.558594 469.683594 577.582031 C 468.703125 581.496094 467.996094 584.320312 467.460938 585.78125 L 467.363281 586.042969 C 459.96875 606.183594 433.902344 672.082031 408.933594 674.59375 C 392.121094 676.300781 358.902344 659.78125 350.613281 655.492188 Z M 338.277344 726.898438 C 336.707031 726.898438 335.402344 726.878906 334.394531 726.851562 C 332.5625 726.800781 331.070312 725.957031 330.070312 724.414062 C 322.898438 713.335938 345.328125 658.363281 347.910156 652.136719 L 348.707031 650.203125 L 350.546875 651.191406 C 350.945312 651.40625 390.800781 672.59375 408.554688 670.835938 C 426.679688 669.011719 449.652344 623.316406 463.808594 584.742188 L 463.914062 584.472656 C 464.378906 583.203125 465.097656 580.320312 466.015625 576.667969 C 468.863281 565.292969 473.621094 546.261719 479.984375 539.28125 C 485.945312 532.742188 491.683594 519.121094 493.875 513.578125 C 495.242188 510.113281 498.976562 508.277344 502.382812 509.386719 C 503.980469 509.90625 505.167969 510.917969 505.816406 512.300781 C 506.734375 514.277344 506.527344 516.851562 505.183594 520.164062 C 502.683594 526.34375 499.65625 533.988281 497.523438 539.394531 C 502.671875 535.753906 506.753906 534.742188 509.675781 536.382812 C 512.289062 537.855469 513.71875 541.539062 514.460938 544.375 C 516.628906 552.675781 516.082031 565.554688 509.960938 575.59375 C 504.785156 584.089844 499.179688 586.605469 495.082031 588.445312 C 492.03125 589.816406 490.402344 590.621094 489.539062 592.691406 C 488.761719 594.535156 486.15625 603.472656 482.859375 614.800781 C 473.980469 645.234375 460.566406 691.222656 453.589844 702.195312 C 440.199219 723.277344 361.269531 726.898438 338.277344 726.898438 " fill-opacity="1" fill-rule="nonzero"/><path fill="#f5f5f5" d="M 217.621094 628.667969 L 225.164062 570.429688 L 258.375 586.765625 L 260.445312 627.246094 C 260.394531 635.292969 253.757812 640 253.757812 640 C 245.554688 646.503906 233.75 645.773438 225 640.074219 L 222.972656 638.753906 C 219.582031 636.550781 217.5625 632.742188 217.621094 628.667969 " fill-opacity="1" fill-rule="nonzero"/><path fill="#000000" d="M 219.507812 628.800781 C 219.492188 632.199219 221.167969 635.328125 224.003906 637.171875 L 226.03125 638.492188 C 234.625 644.089844 245.542969 644.101562 252.582031 638.519531 C 252.714844 638.421875 258.511719 634.171875 258.554688 627.234375 L 256.542969 587.976562 L 226.699219 573.289062 Z M 239.949219 646.550781 C 234.570312 646.550781 228.976562 644.917969 223.964844 641.660156 L 221.941406 640.34375 C 217.980469 637.761719 215.660156 633.390625 215.730469 628.640625 C 215.730469 628.574219 215.738281 628.5 215.746094 628.429688 L 223.289062 570.1875 C 223.371094 569.582031 223.734375 569.054688 224.269531 568.761719 C 224.808594 568.472656 225.453125 568.460938 226 568.734375 L 259.210938 585.070312 C 259.824219 585.371094 260.226562 585.988281 260.261719 586.671875 L 262.328125 627.152344 C 262.28125 636.167969 255.15625 641.328125 254.851562 641.542969 C 250.648438 644.875 245.40625 646.550781 239.949219 646.550781 " fill-opacity="1" fill-rule="nonzero"/><path fill="#000000" d="M 264.640625 512.4375 C 254.855469 512.988281 268.203125 521.605469 231.0625 515.210938 C 216.269531 512.664062 225.394531 528.574219 221.554688 527.925781 C 207.378906 525.523438 207.863281 525.589844 201.359375 528.121094 C 197.054688 529.796875 195.082031 538.316406 196.605469 544.347656 C 198.613281 552.296875 205.503906 553.621094 213.320312 570.015625 C 218.804688 581.535156 218.605469 588.9375 223.601562 590.132812 C 228.652344 591.34375 231.503906 584.417969 237.121094 585.320312 C 244.390625 586.492188 244.367188 598.875 251.796875 603.15625 C 256.476562 605.855469 266.710938 606.183594 281.957031 596.476562 C 284.425781 594.902344 285.4375 591.777344 284.347656 589.050781 C 282.949219 585.546875 281.164062 581.140625 279.105469 577.078125 C 269.296875 557.6875 261.582031 553.929688 263.601562 548.382812 C 266.695312 539.890625 282.402344 542.757812 284.171875 535.867188 C 286.015625 528.710938 278.042969 511.679688 264.640625 512.4375 " fill-opacity="1" fill-rule="nonzero"/><path fill="#f5f5f5" d="M 234.621094 551.199219 L 237.984375 556.078125 C 239.570312 558.378906 240.996094 560.785156 242.25 563.28125 C 244.605469 567.964844 248.714844 575.996094 251.355469 580.3125 C 255.234375 586.652344 275.667969 576.023438 275.667969 576.023438 L 276.488281 571.742188 L 278.855469 570.445312 C 279.3125 570.191406 279.722656 569.84375 279.996094 569.394531 C 280.675781 568.28125 280.527344 566.910156 279.738281 565.992188 C 275.414062 560.929688 266.289062 549.492188 262.269531 538.753906 C 262.269531 538.753906 245.964844 536.472656 234.621094 551.199219 " fill-opacity="1" fill-rule="nonzero"/><path fill="#000000" d="M 236.972656 551.28125 L 239.542969 555.003906 C 241.171875 557.371094 242.652344 559.871094 243.941406 562.433594 C 246.179688 566.890625 250.332031 575.015625 252.96875 579.324219 C 254.832031 582.371094 266.089844 578.722656 273.980469 574.757812 L 274.628906 571.382812 C 274.738281 570.832031 275.082031 570.351562 275.578125 570.078125 L 277.945312 568.78125 C 278.148438 568.671875 278.304688 568.542969 278.382812 568.410156 C 278.621094 568.023438 278.585938 567.558594 278.300781 567.222656 C 273.554688 561.664062 265.144531 550.976562 260.933594 540.53125 C 257.386719 540.34375 245.878906 540.640625 236.972656 551.28125 Z M 256.285156 584.1875 C 253.425781 584.1875 251.027344 583.402344 249.742188 581.300781 C 247.035156 576.871094 242.828125 568.644531 240.5625 564.128906 C 239.347656 561.71875 237.960938 559.375 236.429688 557.152344 L 233.0625 552.269531 C 232.597656 551.589844 232.621094 550.691406 233.125 550.042969 C 245.003906 534.621094 261.824219 536.78125 262.53125 536.882812 C 263.21875 536.976562 263.796875 537.441406 264.039062 538.089844 C 268.019531 548.714844 277.347656 560.277344 281.175781 564.761719 C 282.519531 566.339844 282.695312 568.59375 281.613281 570.378906 C 281.1875 571.074219 280.546875 571.667969 279.761719 572.101562 L 278.175781 572.96875 L 277.523438 576.382812 C 277.414062 576.945312 277.050781 577.433594 276.539062 577.703125 C 273.898438 579.074219 263.578125 584.1875 256.285156 584.1875 " fill-opacity="1" fill-rule="nonzero"/><path fill="#f5f5f5" d="M 240.589844 568.90625 C 240.589844 568.90625 232.507812 557.152344 227.972656 561.988281 C 223.4375 566.828125 232.652344 579.535156 240.589844 568.90625 " fill-opacity="1" fill-rule="nonzero"/><path fill="#000000" d="M 147.457031 728.496094 C 148.628906 743.507812 147.605469 790.566406 139.976562 805.15625 C 132.414062 819.613281 124.15625 832.949219 121.523438 869.96875 C 121.347656 872.433594 246.375 928.625 261.957031 898.007812 C 262.320312 897.296875 262.410156 896.480469 262.183594 895.71875 C 260.820312 891.183594 256.21875 871.386719 265.285156 833.113281 C 271.394531 807.320312 282.921875 784.914062 302.542969 756.910156 C 302.59375 756.832031 302.644531 756.75 302.691406 756.671875 C 303.613281 755.042969 314.703125 736.46875 343.820312 730.3125 C 344.480469 730.175781 345.078125 729.828125 345.511719 729.3125 C 349.574219 724.492188 370.503906 698.132812 376.753906 660.375 C 376.972656 659.050781 376.289062 657.746094 375.085938 657.15625 C 367.207031 653.324219 337.875 639.558594 316.425781 636.429688 C 291.433594 632.785156 301.339844 638.410156 283.488281 632.417969 C 281.011719 631.585938 273.589844 625.925781 271.894531 624.691406 C 261.433594 617.054688 238.320312 628.484375 216.308594 619.71875 C 213.726562 618.6875 210.898438 618.613281 208.238281 619.394531 C 201.699219 621.3125 188.675781 624.085938 175.925781 624.097656 C 133.195312 624.148438 146.257812 713.125 147.457031 728.496094 " fill-opacity="1" fill-rule="nonzero"/><path fill="#f5f5f5" d="M 160.425781 794.257812 C 160.089844 794.257812 159.753906 794.167969 159.445312 793.976562 C 158.554688 793.4375 158.269531 792.277344 158.8125 791.382812 C 166.867188 778.144531 176.484375 759.644531 179.40625 733.84375 C 184.308594 690.546875 207.886719 658.3125 208.125 657.988281 C 208.742188 657.152344 209.925781 656.976562 210.765625 657.59375 C 211.605469 658.222656 211.78125 659.398438 211.160156 660.242188 C 210.929688 660.554688 187.949219 692.015625 183.164062 734.269531 C 180.160156 760.800781 170.296875 779.777344 162.042969 793.347656 C 161.6875 793.933594 161.066406 794.257812 160.425781 794.257812 " fill-opacity="1" fill-rule="nonzero"/></svg>