<svg width="753" height="529" viewBox="0 0 753 529" fill="none" xmlns="http://www.w3.org/2000/svg">
<path d="M610.56 0H15.23C7.32001 0 0.890015 6.43 0.890015 14.34V413.25C0.890015 421.16 7.32001 427.59 15.23 427.59H610.56C618.47 427.59 624.9 421.16 624.9 413.25V14.34C624.9 6.43 618.47 0 610.56 0Z" fill="#D7D7D8"/>
<path d="M613.17 13.47H16.97V350.68H613.17V13.47Z" fill="white"/>
<path d="M624.9 365.45V413.25C624.9 421.16 618.47 427.59 610.56 427.59H15.23C7.32001 427.59 0.890015 421.16 0.890015 413.25V365.45H624.9Z" fill="#050505"/>
<path d="M388.95 418.47H241.2V526.24H388.95V418.47Z" fill="black"/>
<path d="M389.37 512.76H240.76V517.11H389.37V512.76Z" fill="#D7D7D8"/>
<path d="M524.38 45.2201V52.7901H102.29V45.2201C102.29 41.1601 105.58 37.8701 109.64 37.8701H517.03C521.09 37.8701 524.38 41.1601 524.38 45.2201Z" fill="#D7D7D8"/>
<path d="M111.28 47.4001C112.473 47.4001 113.44 46.433 113.44 45.2401C113.44 44.0471 112.473 43.0801 111.28 43.0801C110.087 43.0801 109.12 44.0471 109.12 45.2401C109.12 46.433 110.087 47.4001 111.28 47.4001Z" fill="white"/>
<path d="M118.47 47.4001C119.663 47.4001 120.63 46.433 120.63 45.2401C120.63 44.0471 119.663 43.0801 118.47 43.0801C117.277 43.0801 116.31 44.0471 116.31 45.2401C116.31 46.433 117.277 47.4001 118.47 47.4001Z" fill="white"/>
<path d="M125.65 47.4001C126.843 47.4001 127.81 46.433 127.81 45.2401C127.81 44.0471 126.843 43.0801 125.65 43.0801C124.457 43.0801 123.49 44.0471 123.49 45.2401C123.49 46.433 124.457 47.4001 125.65 47.4001Z" fill="white"/>
<path d="M477.84 60.6899H144.16C141.084 60.6899 138.59 63.1837 138.59 66.2599C138.59 69.3362 141.084 71.8299 144.16 71.8299H477.84C480.916 71.8299 483.41 69.3362 483.41 66.2599C483.41 63.1837 480.916 60.6899 477.84 60.6899Z" fill="#D7D7D8"/>
<path d="M249.49 192.76H175.21C170.73 192.76 167.08 189.11 167.08 184.63V121.13C167.08 116.65 170.73 113 175.21 113H249.49C253.97 113 257.62 116.65 257.62 121.13V184.63C257.62 189.11 253.97 192.76 249.49 192.76ZM175.21 115.49C172.1 115.49 169.58 118.02 169.58 121.12V184.62C169.58 187.73 172.11 190.25 175.21 190.25H249.49C252.6 190.25 255.12 187.72 255.12 184.62V121.12C255.12 118.01 252.59 115.49 249.49 115.49H175.21Z" fill="#D7D7D8"/>
<path d="M350.48 192.76H276.2C271.72 192.76 268.07 189.11 268.07 184.63V121.13C268.07 116.65 271.72 113 276.2 113H350.48C354.96 113 358.61 116.65 358.61 121.13V184.63C358.61 189.11 354.96 192.76 350.48 192.76ZM276.2 115.49C273.09 115.49 270.57 118.02 270.57 121.12V184.62C270.57 187.73 273.1 190.25 276.2 190.25H350.48C353.59 190.25 356.11 187.72 356.11 184.62V121.12C356.11 118.01 353.58 115.49 350.48 115.49H276.2Z" fill="#D7D7D8"/>
<path d="M451.46 192.76H377.18C372.7 192.76 369.05 189.11 369.05 184.63V121.13C369.05 116.65 372.7 113 377.18 113H451.46C455.94 113 459.59 116.65 459.59 121.13V184.63C459.59 189.11 455.94 192.76 451.46 192.76ZM377.18 115.49C374.07 115.49 371.55 118.02 371.55 121.12V184.62C371.55 187.73 374.08 190.25 377.18 190.25H451.46C454.57 190.25 457.09 187.72 457.09 184.62V121.12C457.09 118.01 454.56 115.49 451.46 115.49H377.18Z" fill="#D7D7D8"/>
<path d="M249.49 292.04H175.21C170.73 292.04 167.08 288.39 167.08 283.91V220.41C167.08 215.93 170.73 212.28 175.21 212.28H249.49C253.97 212.28 257.62 215.93 257.62 220.41V283.91C257.62 288.39 253.97 292.04 249.49 292.04ZM175.21 214.77C172.1 214.77 169.58 217.3 169.58 220.4V283.9C169.58 287.01 172.11 289.53 175.21 289.53H249.49C252.6 289.53 255.12 287 255.12 283.9V220.4C255.12 217.29 252.59 214.77 249.49 214.77H175.21Z" fill="#D7D7D8"/>
<path d="M350.48 292.04H276.2C271.72 292.04 268.07 288.39 268.07 283.91V220.41C268.07 215.93 271.72 212.28 276.2 212.28H350.48C354.96 212.28 358.61 215.93 358.61 220.41V283.91C358.61 288.39 354.96 292.04 350.48 292.04ZM276.2 214.77C273.09 214.77 270.57 217.3 270.57 220.4V283.9C270.57 287.01 273.1 289.53 276.2 289.53H350.48C353.59 289.53 356.11 287 356.11 283.9V220.4C356.11 217.29 353.58 214.77 350.48 214.77H276.2Z" fill="#D7D7D8"/>
<path d="M451.46 292.04H377.18C372.7 292.04 369.05 288.39 369.05 283.91V220.41C369.05 215.93 372.7 212.28 377.18 212.28H451.46C455.94 212.28 459.59 215.93 459.59 220.41V283.91C459.59 288.39 455.94 292.04 451.46 292.04Z" fill="#004AB1"/>
<path d="M652.54 150.66L664.81 141.11C664.81 141.11 678.81 145.47 679.17 145.65C679.53 145.83 700.9 195.39 700.9 195.39C700.9 195.39 646.16 223.41 650.16 220.67C654.16 217.95 653.33 181.02 649.61 176.21C645.88 171.39 649.06 159.29 649.06 159.29L652.51 150.65H652.53L652.54 150.66Z" fill="#2F2E43"/>
<path d="M686.46 172.99H669.83V199.39L688.17 193.36L686.46 172.99Z" fill="#F3A3A6"/>
<path d="M632.1 343.24C632.53 340.83 632.36 338.34 631.6 335.98L637.4 311.05L625.03 308.46L620.49 334.03C619.01 335.99 618.05 338.29 617.69 340.71C616.69 346.76 619.12 352.24 623.1 352.93C627.08 353.63 631.11 349.29 632.11 343.24H632.1Z" fill="#F3A3A6"/>
<path d="M681.27 488.92H664.09V513.29H681.27V488.92Z" fill="#F3A3A6"/>
<path d="M647.37 528.05C654.91 528.05 665.92 527.26 666 527.25C668.95 527.51 683.65 528.67 684.38 525.31C685.05 522.22 684.06 518.99 683.92 518.54C682.5 504.49 681.98 504.32 681.66 504.23C681.16 504.08 679.7 504.78 677.33 506.31L677.18 506.41L677.15 506.58C677.11 506.79 676.06 511.95 671.08 511.17C667.67 510.63 666.56 509.87 666.21 509.5C666.5 509.37 666.86 509.14 667.11 508.75C667.48 508.18 667.54 507.44 667.3 506.55C666.66 504.22 664.74 500.77 664.66 500.62L664.44 500.23L644.92 513.4L632.86 516.85C631.95 517.1 631.22 517.76 630.85 518.63C630.34 519.84 630.65 521.26 631.64 522.14C633.83 524.11 638.19 527.48 642.75 527.9C643.96 528.01 645.57 528.06 647.38 528.06L647.37 528.05Z" fill="black"/>
<path d="M730.186 469.782L715.609 478.873L728.505 499.551L743.083 490.46L730.186 469.782Z" fill="#F3A3A6"/>
<path d="M710.82 524.72C713.22 524.72 715.87 524.38 718.1 523.25C723.73 520.42 737.42 510.47 737.5 510.4C740.13 509.07 753.22 502.27 752.06 499.03C750.99 496.05 748.44 493.83 748.09 493.53C739.45 482.35 738.93 482.49 738.61 482.58C738.1 482.72 737.24 484.08 736.03 486.63L735.96 486.79L736.03 486.95C736.11 487.16 737.95 492.09 733.31 494.05C730.13 495.4 728.79 495.35 728.3 495.21C728.48 494.94 728.66 494.56 728.67 494.09C728.69 493.41 728.35 492.74 727.67 492.12C725.89 490.48 722.44 488.57 722.29 488.49L721.9 488.28L712.3 509.79L703.89 519.09C703.25 519.79 702.98 520.73 703.13 521.67C703.34 522.97 704.36 524 705.66 524.23C706.98 524.46 708.83 524.71 710.85 524.71L710.82 524.72Z" fill="black"/>
<path d="M693.92 285.11C693.92 285.11 699.49 285.11 708.22 302.57C716.95 320.04 705.84 390.14 705.84 390.14L736.94 470.62L715.12 485.9L675.29 399.7L685.11 495.18H660.56L641.46 329.86L645.82 285.12H693.92V285.11Z" fill="black"/>
<path d="M697.66 189.08H664.38L634.37 287.84H717.84L697.66 189.08Z" fill="#004AB1"/>
<path d="M669.64 189.09L635.81 329.31H618.89C618.89 329.31 644.53 199.46 646.72 194C648.9 188.54 669.63 189.09 669.63 189.09H669.64Z" fill="#004AB1"/>
<path d="M672.1 180.29C682.196 180.29 690.38 172.106 690.38 162.01C690.38 151.914 682.196 143.73 672.1 143.73C662.004 143.73 653.82 151.914 653.82 162.01C653.82 172.106 662.004 180.29 672.1 180.29Z" fill="#F3A3A6"/>
<path d="M649.33 158.68L653.81 159.44C657.99 142.7 667.46 148.17 668.36 147.98C669.26 147.79 682.72 162.52 681.63 177.44C680.54 192.35 699.82 199.34 699.82 199.34C699.82 199.34 706.56 212 700.55 234.91C694.54 257.82 707.28 265.51 707.28 265.51C732.38 263.38 717.29 228.36 713.29 222C709.29 215.63 712.02 204.54 712.02 204.54C718.21 199.08 710.93 187.08 710.93 187.08C710.93 187.08 712.21 171.07 708.39 167.98C704.57 164.89 704.39 157.25 704.39 157.25C697.65 127.97 675.65 133.61 675.65 133.61C647.46 130.52 649.34 158.67 649.34 158.67L649.33 158.68Z" fill="#2F2E43"/>
<path d="M732.09 340.31C731.63 337.9 730.59 335.63 729.04 333.7L725.6 308.33L713.11 310.31L717.94 335.83C717.27 338.19 717.19 340.67 717.7 343.07C718.91 349.08 723.12 353.33 727.09 352.57C731.06 351.81 733.3 346.32 732.08 340.31H732.09Z" fill="#F3A3A6"/>
<path d="M714.47 327.66H731.39C731.39 327.66 705.75 197.81 703.56 192.35C701.38 186.89 683.12 189.21 683.12 189.21L714.47 327.66Z" fill="#004AB1"/>
</svg>
