<svg width="603" height="697" viewBox="0 0 603 697" fill="none" xmlns="http://www.w3.org/2000/svg">
<g clip-path="url(#clip0_114_96)">
<path d="M602.107 266C602.107 267.98 602.083 269.957 602.037 271.93C602.017 273.22 601.977 274.51 601.927 275.8C601.917 276.17 601.907 276.53 601.887 276.9C601.857 277.61 601.827 278.31 601.797 279C601.577 283.61 601.237 288.187 600.777 292.73C600.757 292.95 600.737 293.17 600.717 293.38C600.667 293.83 600.627 294.28 600.567 294.73C600.427 296.08 600.277 297.43 600.107 298.76C599.997 299.66 599.887 300.55 599.767 301.45C599.707 301.88 599.647 302.31 599.597 302.73C599.527 303.2 599.467 303.66 599.397 304.12C599.367 304.32 599.337 304.52 599.307 304.73C599.207 305.41 599.107 306.1 598.997 306.78C598.867 307.67 598.727 308.55 598.577 309.44C598.437 310.32 598.287 311.2 598.127 312.08C597.977 312.96 597.817 313.84 597.657 314.72C597.497 315.61 597.327 316.49 597.157 317.37C596.297 321.73 595.337 326.053 594.277 330.34C593.857 332.01 593.427 333.677 592.987 335.34C592.257 338.04 591.487 340.727 590.677 343.4C590.447 344.14 590.217 344.88 589.987 345.61C589.727 346.45 589.457 347.29 589.187 348.12C588.917 348.96 588.647 349.79 588.367 350.62C588.087 351.45 587.807 352.28 587.517 353.11C587.237 353.93 586.947 354.76 586.647 355.58C586.357 356.41 586.057 357.23 585.757 358.05C585.447 358.87 585.147 359.69 584.837 360.5C584.217 362.14 583.58 363.763 582.927 365.37C582.607 366.18 582.277 366.99 581.937 367.79C580.607 371.01 579.213 374.193 577.757 377.34C577.437 378.04 577.117 378.74 576.787 379.43C576.567 379.89 576.357 380.34 576.137 380.8C575.767 381.56 575.407 382.31 575.037 383.06C574.667 383.82 574.287 384.59 573.897 385.36C573.127 386.88 572.343 388.397 571.547 389.91C570.757 391.42 569.947 392.93 569.117 394.42C568.287 395.91 567.447 397.4 566.597 398.87C566.167 399.61 565.737 400.35 565.307 401.08C563.577 404.01 561.79 406.907 559.947 409.77C558.117 412.62 556.227 415.437 554.277 418.22C553.307 419.61 552.317 421 551.317 422.37C550.917 422.92 550.517 423.46 550.117 424C549.627 424.68 549.117 425.35 548.607 426.02C526.934 454.846 499.623 478.961 468.334 496.895C437.046 514.83 402.435 526.211 366.608 530.344C330.782 534.477 294.489 531.276 259.938 520.936C225.388 510.597 193.303 493.334 165.637 470.2C162.717 467.76 159.85 465.26 157.037 462.7C138.984 446.26 123.268 427.425 110.327 406.72C108.717 404.13 107.137 401.51 105.617 398.87C82.2826 358.481 70.0326 312.645 70.1067 266C70.1067 119.09 189.197 4.88258e-05 336.107 4.88258e-05C380.312 -0.0267431 423.826 10.9729 462.708 32.0031C501.591 53.0333 534.613 83.4297 558.787 120.44C559.227 121.11 559.667 121.79 560.107 122.47C584.141 159.875 598.356 202.736 601.437 247.09C601.887 253.33 602.11 259.633 602.107 266Z" fill="white"/>
<path d="M560.107 122.47H191.657C191.392 122.463 191.14 122.354 190.955 122.164C190.77 121.974 190.666 121.72 190.666 121.455C190.666 121.19 190.77 120.935 190.955 120.746C191.14 120.556 191.392 120.446 191.657 120.44H558.787C559.227 121.11 559.667 121.79 560.107 122.47Z" fill="black"/>
<path d="M214.01 108.259C220.044 108.259 224.936 103.259 224.936 97.0902C224.936 90.9218 220.044 85.9214 214.01 85.9214C207.977 85.9214 203.085 90.9218 203.085 97.0902C203.085 103.259 207.977 108.259 214.01 108.259Z" fill="black"/>
<path d="M251.752 108.259C257.786 108.259 262.678 103.259 262.678 97.0902C262.678 90.9218 257.786 85.9214 251.752 85.9214C245.719 85.9214 240.827 90.9218 240.827 97.0902C240.827 103.259 245.719 108.259 251.752 108.259Z" fill="black"/>
<path d="M289.495 108.259C295.529 108.259 300.42 103.259 300.42 97.0902C300.42 90.9218 295.529 85.9214 289.495 85.9214C283.461 85.9214 278.569 90.9218 278.569 97.0902C278.569 103.259 283.461 108.259 289.495 108.259Z" fill="black"/>
<path d="M601.437 247.09C591.827 251.46 583.217 258.52 575.697 268.23C567.007 279.46 557.697 287.37 548.187 292.73C547.737 292.98 547.297 293.22 546.847 293.46C538.321 298.054 528.972 300.919 519.337 301.89C516.426 302.183 513.502 302.323 510.577 302.31C509.357 302.3 508.137 302.27 506.927 302.21C504.057 302.07 501.217 301.79 498.427 301.39C482.407 299.11 467.917 292.95 457.187 287.16C442.485 279.051 426.527 273.467 409.977 270.64C407.017 270.15 404.063 269.767 401.117 269.49C399.897 269.37 398.687 269.28 397.477 269.2C394.507 269 391.54 268.907 388.577 268.92C387.057 268.93 385.547 268.96 384.027 269.02C358.487 270.02 325.177 277.3 295.307 302.73C294.907 303.07 294.517 303.41 294.117 303.75C293.747 304.07 293.377 304.4 293.007 304.73C288.279 308.933 283.823 313.432 279.667 318.2C274.902 323.661 270.492 329.423 266.467 335.45C261.686 342.506 256.102 348.983 249.827 354.75C240.545 363.315 233.112 373.688 227.984 385.23C222.856 396.772 220.141 409.241 220.007 421.87V422.37C219.997 422.91 219.997 423.46 219.997 424H550.127C550.527 423.46 550.927 422.92 551.317 422.37C552.317 421 553.307 419.61 554.277 418.22C556.227 415.44 558.117 412.623 559.947 409.77C561.797 406.91 563.583 404.013 565.307 401.08C565.737 400.35 566.167 399.61 566.597 398.87C567.447 397.4 568.287 395.91 569.117 394.42C569.947 392.93 570.757 391.42 571.547 389.91C572.347 388.4 573.13 386.883 573.897 385.36C574.287 384.59 574.667 383.82 575.037 383.06C575.407 382.31 575.767 381.56 576.137 380.8C576.357 380.34 576.567 379.89 576.787 379.43C577.117 378.74 577.437 378.04 577.757 377.34C579.217 374.19 580.61 371.007 581.937 367.79C582.277 366.99 582.607 366.18 582.927 365.37C583.577 363.76 584.213 362.137 584.837 360.5C585.147 359.69 585.447 358.87 585.757 358.05C586.057 357.23 586.357 356.41 586.647 355.58C586.947 354.76 587.237 353.93 587.517 353.11C587.807 352.28 588.087 351.45 588.367 350.62C588.647 349.79 588.917 348.96 589.187 348.12C589.457 347.29 589.727 346.45 589.987 345.61C590.217 344.88 590.447 344.14 590.677 343.4C591.487 340.73 592.257 338.043 592.987 335.34C593.427 333.68 593.857 332.013 594.277 330.34C595.337 326.06 596.297 321.737 597.157 317.37C597.327 316.49 597.497 315.61 597.657 314.72C597.817 313.84 597.977 312.96 598.127 312.08C598.287 311.2 598.437 310.32 598.577 309.44C598.727 308.55 598.867 307.67 598.997 306.78C599.107 306.1 599.207 305.41 599.307 304.73C599.337 304.52 599.367 304.32 599.397 304.12C599.467 303.65 599.527 303.19 599.587 302.73C599.647 302.3 599.707 301.87 599.767 301.45C599.887 300.55 599.997 299.66 600.107 298.76C600.277 297.43 600.427 296.08 600.567 294.73H600.577C600.617 294.28 600.667 293.83 600.717 293.38C600.737 293.17 600.757 292.95 600.777 292.73C601.237 288.19 601.577 283.613 601.797 279C601.827 278.31 601.857 277.61 601.887 276.9C601.907 276.53 601.917 276.17 601.927 275.8C601.977 274.51 602.017 273.22 602.037 271.93C602.087 269.96 602.11 267.983 602.107 266C602.107 259.64 601.883 253.337 601.437 247.09Z" fill="#004AB1"/>
<path d="M291.893 314.155H288.244V421.094H291.893V314.155Z" fill="black"/>
<path d="M401.121 264.211H397.473V421.094H401.121V264.211Z" fill="black"/>
<path d="M510.575 297.047H506.927V421.094H510.575V297.047Z" fill="black"/>
<path d="M399.522 277.887C405.686 277.887 410.683 272.89 410.683 266.726C410.683 260.562 405.686 255.564 399.522 255.564C393.358 255.564 388.361 260.562 388.361 266.726C388.361 272.89 393.358 277.887 399.522 277.887Z" fill="black"/>
<path d="M508.976 308.899C515.14 308.899 520.137 303.902 520.137 297.737C520.137 291.573 515.14 286.576 508.976 286.576C502.812 286.576 497.815 291.573 497.815 297.737C497.815 303.902 502.812 308.899 508.976 308.899Z" fill="black"/>
<path d="M288.069 316.317C294.233 316.317 299.23 311.319 299.23 305.155C299.23 298.991 294.233 293.994 288.069 293.994C281.905 293.994 276.907 298.991 276.907 305.155C276.907 311.319 281.905 316.317 288.069 316.317Z" fill="black"/>
<path d="M551.317 422.37C550.917 422.92 550.517 423.46 550.117 424C549.627 424.68 549.117 425.35 548.607 426.02H219.637V422.37H551.317Z" fill="black"/>
<path d="M127.115 685.125H137.686L142.715 644.349L127.113 644.35L127.115 685.125Z" fill="#FFB8B8"/>
<path d="M154.617 685.56C153.389 684.321 151.928 683.338 150.317 682.67C148.704 682.01 146.979 681.67 145.237 681.67L139.007 676.95L138.677 677.08L127.397 681.67H124.417V695.37H158.507V694.94C158.512 693.197 158.171 691.47 157.503 689.86C156.835 688.249 155.854 686.788 154.617 685.56Z" fill="black"/>
<path d="M176.228 685.125H186.799L191.828 644.349L176.226 644.35L176.228 685.125Z" fill="#FFB8B8"/>
<path d="M203.737 685.56C202.507 684.318 201.042 683.336 199.427 682.67C197.815 682.008 196.089 681.668 194.347 681.67L188.127 676.95L187.787 677.09L176.507 681.67H173.527L173.537 695.37H207.617V694.94C207.621 693.198 207.281 691.472 206.615 689.862C205.949 688.252 204.971 686.79 203.737 685.56Z" fill="black"/>
<path d="M184.678 461.981L101.619 464.148L103.064 504.594C103.064 504.594 101.619 515.428 104.508 518.317C107.397 521.206 108.842 521.206 107.397 526.262C105.953 531.317 113.585 539.575 112.658 540.502C111.731 541.429 109.564 546.485 109.564 546.485L116.787 587.653C116.787 587.653 121.842 659.155 123.287 660.6C124.731 662.044 126.176 660.6 124.731 664.211C123.287 667.822 121.842 666.378 123.287 667.822C124.566 669.202 125.772 670.649 126.898 672.156H144.36C144.36 672.156 145.677 664.933 145.677 664.211C145.677 663.489 147.121 659.155 147.121 658.433C147.121 657.711 145.844 656.434 145.844 656.434C145.403 654.966 145.105 653.458 144.954 651.933C144.954 650.488 140.621 594.875 140.621 594.875L149.288 522.65L170.233 593.431C170.233 593.431 170.233 655.544 171.677 656.989C173.122 658.433 173.122 657.711 172.4 660.6C171.677 663.489 168.788 662.767 170.955 664.933C173.122 667.1 173.844 663.489 173.122 667.1L172.4 670.711L194.067 671.021C194.067 671.021 196.956 664.933 195.512 662.767C194.067 660.6 194.154 661.191 195.916 657.645C197.678 654.1 198.401 653.377 197.678 652.655C196.956 651.933 196.956 648.091 196.956 648.091L193.345 578.986C193.345 578.986 192.623 506.039 192.623 503.872C192.568 502.757 192.774 501.645 193.223 500.623V497.682L190.456 487.26L184.678 461.981Z" fill="black"/>
<path d="M278.675 304.457C278.276 305.567 277.638 306.575 276.807 307.411C275.976 308.248 274.972 308.892 273.865 309.298C272.758 309.704 271.575 309.863 270.401 309.763C269.226 309.663 268.087 309.306 267.065 308.719L231.011 338.924L229.052 324.159L264.316 297.164C265.417 295.513 267.086 294.322 269.006 293.819C270.926 293.316 272.964 293.534 274.734 294.433C276.504 295.332 277.883 296.849 278.609 298.696C279.335 300.544 279.359 302.594 278.675 304.457Z" fill="#FFB8B8"/>
<path d="M119.696 316.923C132.062 316.923 142.086 306.899 142.086 294.534C142.086 282.168 132.062 272.144 119.696 272.144C107.331 272.144 97.3068 282.168 97.3068 294.534C97.3068 306.899 107.331 316.923 119.696 316.923Z" fill="#FFB8B8"/>
<path d="M137.848 272.251C135.763 267.283 126.83 264.333 112.695 264.777C98.5594 265.221 96.0839 282.078 96.0839 282.078C88.2981 289.335 100.868 311.992 103.049 308.868C105.23 305.745 108.891 308.697 108.891 308.697L105.402 289.071C109.087 290.488 113.05 291.44 116.516 289.789L110.773 286.718L125.051 288.495L119.163 283.965C119.306 283.917 119.448 283.869 119.591 283.82C121.953 284.839 124.481 285.413 127.051 285.514C130.053 285.492 133.243 284.085 134.501 281.359C134.836 280.611 135.017 279.803 135.034 278.983C139.173 280.327 141.347 285.176 141.347 285.176C140.561 280.774 139.39 276.449 137.848 272.251Z" fill="#2F2E41"/>
<path d="M137.618 317.925C132.618 317.925 129.398 318.615 121.618 319.925C107.258 322.345 115.858 335.989 115.858 335.989C115.858 335.989 116.508 335.659 114.748 335.989C112.988 336.319 106.988 341.509 106.988 341.509L96.2585 351.039C80.0885 363.729 83.7085 383.529 83.7085 383.529L107.288 407.259L96.9585 454.869C96.9585 454.869 101.348 461.939 99.0784 465.109C96.8084 468.279 119.078 467.369 119.078 467.369C134.448 474.219 188.598 468.429 188.598 468.429C187.848 466.469 180.598 451.279 180.598 451.279C183.748 445.839 180.748 437.979 180.748 437.979C180.748 437.979 177.618 400.799 175.618 395.659C173.618 390.519 180.738 362.669 185.418 362.969C190.098 363.269 220.328 347.849 220.328 347.849C220.328 347.849 219.568 346.639 229.548 342.559C235.281 340.307 240.536 336.992 245.038 332.789L249.138 324.599C247.168 325.359 240.518 312.819 240.518 312.819L237.618 313.925L235.938 313.439C235.938 313.439 222.828 317.169 220.148 319.889C217.468 322.609 216.568 321.849 214.148 322.459C211.728 323.069 211.428 324.769 210.668 324.579C209.908 324.389 208.558 326.689 207.498 326.389C206.438 326.089 204.168 327.299 202.658 327.599C201.148 327.899 190.418 332.439 190.418 332.439C183.778 329.079 165.778 330.439 165.778 330.439C165.778 330.439 159.888 326.969 158.218 330.439C157.769 331.425 157.048 332.262 156.139 332.852C155.23 333.442 154.172 333.76 153.088 333.769L145.908 330.699C145.491 332.222 137.66 316.346 137.618 317.925Z" fill="#004AB1"/>
<path d="M57.3312 640.99L56.3335 618.556C45.9324 612.996 34.3314 610.06 22.5378 610.001C38.7693 623.271 36.7408 648.852 47.7454 666.698C51.2203 672.237 55.8972 676.924 61.4296 680.41C66.9619 683.897 73.2079 686.093 79.7047 686.838L93.2877 695.154C95.1515 684.764 94.7406 674.093 92.0833 663.876C89.4259 653.66 84.5852 644.141 77.8949 635.975C74.0962 631.432 69.7404 627.384 64.9305 623.929C61.6773 632.507 57.3312 640.99 57.3312 640.99Z" fill="#F2F2F2"/>
<path d="M295.494 302.729H289.494V304.729H295.494V302.729Z" fill="#3F3D56"/>
<path d="M307.607 302.73V304.73H319.727V302.73H307.607ZM331.847 302.73V304.73H343.957V302.73H331.847ZM356.077 302.73V304.73H368.197V302.73H356.077ZM380.307 302.73V304.73H392.427V302.73H380.307ZM404.547 302.73V304.73H416.657V302.73H404.547ZM428.777 302.73V304.73H440.897V302.73H428.777ZM453.007 302.73V304.73H465.127V302.73H453.007ZM477.247 302.73V304.73H489.357V302.73H477.247ZM501.477 302.73V304.73H513.597V302.73H501.477ZM525.707 302.73V304.73H537.827V302.73H525.707ZM549.937 302.73V304.73H562.057V302.73H549.937ZM574.177 302.73V304.73H586.287V302.73H574.177ZM598.407 302.73V304.73H599.307C599.337 304.52 599.367 304.32 599.397 304.12C599.467 303.66 599.527 303.2 599.597 302.73H598.407Z" fill="black"/>
<path d="M399.494 262.729H393.494V264.729H399.494V262.729Z" fill="#3F3D56"/>
<path d="M411.607 262.73V264.73H423.727V262.73H411.607ZM435.847 262.73V264.73H447.957V262.73H435.847ZM460.077 262.73V264.73H472.197V262.73H460.077ZM484.307 262.73V264.73H496.427V262.73H484.307ZM508.547 262.73V264.73H520.657V262.73H508.547ZM532.777 262.73V264.73H544.897V262.73H532.777ZM557.007 262.73V264.73H569.127V262.73H557.007ZM581.247 262.73V264.73H593.357V262.73H581.247Z" fill="#3F3D56"/>
<path d="M510.494 292.729H504.494V294.729H510.494V292.729Z" fill="#3F3D56"/>
<path d="M522.607 292.73V294.73H534.727V292.73H522.607ZM546.847 292.73V294.73H558.957V292.73H546.847ZM571.077 292.73V294.73H583.197V292.73H571.077ZM595.307 292.73V294.73H600.577C600.617 294.28 600.667 293.83 600.717 293.38C600.737 293.17 600.757 292.95 600.777 292.73H595.307Z" fill="#3F3D56"/>
<path d="M153.107 501.309V436.9C153.108 435.596 153.627 434.346 154.548 433.424C155.47 432.502 156.72 431.984 158.024 431.982H206.667C207.971 431.984 209.221 432.502 210.143 433.424C211.064 434.346 211.583 435.596 211.584 436.9V501.309C211.583 502.613 211.064 503.862 210.142 504.784C209.221 505.706 207.971 506.225 206.667 506.226H158.024C156.72 506.225 155.47 505.706 154.548 504.784C153.627 503.862 153.108 502.613 153.107 501.309Z" fill="#E6E6E6"/>
<path d="M156.838 481.855V440.446C156.839 439.225 157.325 438.055 158.188 437.192C159.051 436.328 160.222 435.843 161.443 435.841H203.248C204.469 435.843 205.639 436.328 206.503 437.192C207.366 438.055 207.852 439.225 207.853 440.446V497.762C207.852 498.983 207.366 500.153 206.503 501.017C205.639 501.88 204.469 502.366 203.248 502.367H177.351C171.912 502.361 166.698 500.198 162.853 496.352C159.007 492.507 156.844 487.293 156.838 481.855Z" fill="white"/>
<path d="M163.607 452C163.608 450.807 164.083 449.663 164.926 448.819C165.77 447.976 166.914 447.501 168.107 447.5H197.107C198.3 447.5 199.445 447.974 200.289 448.818C201.133 449.662 201.607 450.807 201.607 452C201.607 453.193 201.133 454.338 200.289 455.182C199.445 456.026 198.3 456.5 197.107 456.5H168.107C166.914 456.499 165.77 456.024 164.926 455.181C164.083 454.337 163.608 453.193 163.607 452Z" fill="#E6E6E6"/>
<path d="M163.607 466C163.608 464.807 164.083 463.663 164.926 462.819C165.77 461.976 166.914 461.501 168.107 461.5H197.107C198.3 461.5 199.445 461.974 200.289 462.818C201.133 463.662 201.607 464.807 201.607 466C201.607 467.193 201.133 468.338 200.289 469.182C199.445 470.026 198.3 470.5 197.107 470.5H168.107C166.914 470.499 165.77 470.024 164.926 469.181C164.083 468.337 163.608 467.193 163.607 466Z" fill="#E6E6E6"/>
<path d="M163.607 480C163.608 478.807 164.083 477.663 164.926 476.819C165.77 475.976 166.914 475.501 168.107 475.5H197.107C198.3 475.5 199.445 475.974 200.289 476.818C201.133 477.662 201.607 478.807 201.607 480C201.607 481.193 201.133 482.338 200.289 483.182C199.445 484.026 198.3 484.5 197.107 484.5H168.107C166.914 484.499 165.77 484.024 164.926 483.181C164.083 482.337 163.608 481.193 163.607 480Z" fill="#E6E6E6"/>
<path d="M154.256 478.809C153.162 478.829 152.077 478.609 151.077 478.165C150.078 477.72 149.188 477.062 148.47 476.237C147.752 475.411 147.224 474.438 146.923 473.386C146.622 472.335 146.555 471.23 146.727 470.149L105.198 447.41L117.352 440.836L155.838 463.951C157.634 464.36 159.217 465.414 160.287 466.913C161.358 468.412 161.841 470.251 161.646 472.082C161.451 473.914 160.591 475.61 159.229 476.85C157.867 478.09 156.097 478.787 154.256 478.809Z" fill="#FFB8B8"/>
<path d="M130.107 462L115.38 459.384L110.107 455L106.56 453.194L94.3375 444.615L94.3011 444.506L74.8797 387.097C73.9879 382.382 74.9321 377.505 77.5189 373.464C80.1057 369.423 84.1395 366.524 88.7943 365.36C91.3682 364.719 94.0487 364.632 96.6591 365.102C99.2695 365.572 101.751 366.59 103.939 368.088C106.128 369.586 107.975 371.531 109.358 373.795C110.74 376.058 111.628 378.589 111.963 381.22L118.213 430.423L128.574 441.122L133.107 442L134.15 446.881L138.107 453L130.107 462Z" fill="#004AB1"/>
</g>
<defs>
<clipPath id="clip0_114_96">
<rect width="602.107" height="696.919" fill="white"/>
</clipPath>
</defs>
</svg>
